<?xml version="1.0" encoding="UTF-8" standalone="no"?>
<!DOCTYPE svg PUBLIC "-//W3C//DTD SVG 1.1//EN"
 "http://www.w3.org/Graphics/SVG/1.1/DTD/svg11.dtd">
<!-- Generated by graphviz version 2.40.1 (0)
 -->
<!-- Title: G Pages: 1 -->
<svg width="1434pt" height="476pt"
 viewBox="0.00 0.00 1434.04 476.00" xmlns="http://www.w3.org/2000/svg" xmlns:xlink="http://www.w3.org/1999/xlink">
<g id="graph0" class="graph" transform="scale(1 1) rotate(0) translate(4 472)">
<title>G</title>
<polygon fill="#ffffff" stroke="transparent" points="-4,4 -4,-472 1430.0409,-472 1430.0409,4 -4,4"/>
<!-- ALL -->
<g id="node1" class="node">
<title>ALL</title>
<g id="a_node1"><a xlink:href="http://github.com/FStarLang/FStar/blob/master/ulib/FStar.HyperStack.All.fst#L23" xlink:title="FStar.HyperStack.All.fst:23">
<ellipse fill="none" stroke="#000000" cx="966.5438" cy="-450" rx="27" ry="18"/>
<text text-anchor="middle" x="966.5438" y="-446.3" font-family="Times-Roman" font-size="14.00" fill="#000000">ALL</text>
</a>
</g>
</g>
<!-- STATE -->
<g id="node3" class="node">
<title>STATE</title>
<g id="a_node3"><a xlink:href="http://github.com/FStarLang/FStar/blob/master/ulib/reclaimable/FStar.ST.fst#L29" xlink:title="reclaimable/FStar.ST.fst:29">
<ellipse fill="none" stroke="#000000" cx="563.5438" cy="-378" rx="37.8943" ry="18"/>
<text text-anchor="middle" x="563.5438" y="-374.3" font-family="Times-Roman" font-size="14.00" fill="#000000">STATE</text>
</a>
</g>
</g>
<!-- ALL&#45;&gt;STATE -->
<g id="edge2" class="edge">
<title>ALL&#45;&gt;STATE</title>
<g id="a_edge2"><a xlink:href="http://github.com/FStarLang/FStar/blob/master/ulib/FStar.HyperStack.All.fst#L26" xlink:title="FStar.HyperStack.All.fst:26">
<path fill="none" stroke="#000000" d="M940.4124,-445.3314C873.2024,-433.3236 693.692,-401.2523 608.9869,-386.1189"/>
<polygon fill="#000000" stroke="#000000" points="609.6007,-382.6732 599.141,-384.3598 608.3695,-389.5641 609.6007,-382.6732"/>
</a>
</g>
</g>
<!-- EXN -->
<g id="node6" class="node">
<title>EXN</title>
<g id="a_node6"><a xlink:href="http://github.com/FStarLang/FStar/blob/master/ulib/FStar.Pervasives.fst#L154" xlink:title="FStar.Pervasives.fst:154">
<ellipse fill="none" stroke="#000000" cx="930.5438" cy="-378" rx="27" ry="18"/>
<text text-anchor="middle" x="930.5438" y="-374.3" font-family="Times-Roman" font-size="14.00" fill="#000000">EXN</text>
</a>
</g>
</g>
<!-- ALL&#45;&gt;EXN -->
<g id="edge9" class="edge">
<title>ALL&#45;&gt;EXN</title>
<g id="a_edge9"><a xlink:href="http://github.com/FStarLang/FStar/blob/master/ulib/FStar.HyperStack.All.fst#L29" xlink:title="FStar.HyperStack.All.fst:29">
<path fill="none" stroke="#000000" d="M957.8292,-432.5708C953.5842,-424.0807 948.3903,-413.6929 943.6775,-404.2674"/>
<polygon fill="#000000" stroke="#000000" points="946.7809,-402.6477 939.1782,-395.2687 940.5199,-405.7782 946.7809,-402.6477"/>
</a>
</g>
</g>
<!-- All -->
<g id="node15" class="node">
<title>All</title>
<g id="a_node15"><a xlink:href="http://github.com/FStarLang/FStar/blob/master/ulib/FStar.All.fst#L33" xlink:title="FStar.All.fst:33">
<ellipse fill="none" stroke="#000000" stroke-dasharray="1,5" cx="1002.5438" cy="-378" rx="27" ry="18"/>
<text text-anchor="middle" x="1002.5438" y="-374.3" font-family="Times-Roman" font-size="14.00" fill="#000000">All</text>
</a>
</g>
</g>
<!-- ALL&#45;&gt;All -->
<g id="edge14" class="edge">
<title>ALL&#45;&gt;All</title>
<path fill="none" stroke="#000000" stroke-dasharray="1,5" d="M975.2584,-432.5708C979.5035,-424.0807 984.6974,-413.6929 989.4101,-404.2674"/>
<polygon fill="#000000" stroke="#000000" points="992.5678,-405.7782 993.9095,-395.2687 986.3068,-402.6477 992.5678,-405.7782"/>
</g>
<!-- ML -->
<g id="node29" class="node">
<title>ML</title>
<g id="a_node29"><a xlink:href="http://github.com/FStarLang/FStar/blob/master/ulib/FStar.All.fst#L37" xlink:title="FStar.All.fst:37">
<ellipse fill="none" stroke="#000000" stroke-dasharray="1,5" cx="1074.5438" cy="-378" rx="27" ry="18"/>
<text text-anchor="middle" x="1074.5438" y="-374.3" font-family="Times-Roman" font-size="14.00" fill="#000000">ML</text>
</a>
</g>
</g>
<!-- ALL&#45;&gt;ML -->
<g id="edge28" class="edge">
<title>ALL&#45;&gt;ML</title>
<path fill="none" stroke="#000000" stroke-dasharray="1,5" d="M985.8521,-437.1278C1002.8993,-425.763 1027.9457,-409.0654 1047.0783,-396.3104"/>
<polygon fill="#000000" stroke="#000000" points="1049.0237,-399.2199 1055.4028,-390.7607 1045.1408,-393.3956 1049.0237,-399.2199"/>
</g>
<!-- GST -->
<g id="node2" class="node">
<title>GST</title>
<g id="a_node2"><a xlink:href="http://github.com/FStarLang/FStar/blob/master/ulib/FStar.ST.fst#L26" xlink:title="FStar.ST.fst:26">
<ellipse fill="none" stroke="#000000" cx="837.5438" cy="-306" rx="27" ry="18"/>
<text text-anchor="middle" x="837.5438" y="-302.3" font-family="Times-Roman" font-size="14.00" fill="#000000">GST</text>
</a>
</g>
</g>
<!-- DIV -->
<g id="node4" class="node">
<title>DIV</title>
<g id="a_node4"><a xlink:href="http://github.com/FStarLang/FStar/blob/master/ulib/FStar.Pervasives.fst#L36" xlink:title="FStar.Pervasives.fst:36">
<ellipse fill="none" stroke="#000000" cx="892.5438" cy="-234" rx="27" ry="18"/>
<text text-anchor="middle" x="892.5438" y="-230.3" font-family="Times-Roman" font-size="14.00" fill="#000000">DIV</text>
</a>
</g>
</g>
<!-- GST&#45;&gt;DIV -->
<g id="edge3" class="edge">
<title>GST&#45;&gt;DIV</title>
<g id="a_edge3"><a xlink:href="http://github.com/FStarLang/FStar/blob/master/ulib/FStar.ST.fst#L34" xlink:title="FStar.ST.fst:34">
<path fill="none" stroke="#000000" d="M850.0242,-289.6621C857.0563,-280.4564 865.9785,-268.7764 873.8321,-258.4953"/>
<polygon fill="#000000" stroke="#000000" points="876.8238,-260.3446 880.1129,-250.2733 871.2611,-256.0953 876.8238,-260.3446"/>
</a>
</g>
</g>
<!-- STATE&#45;&gt;GST -->
<g id="edge1" class="edge">
<title>STATE&#45;&gt;GST</title>
<g id="a_edge1"><a xlink:href="http://github.com/FStarLang/FStar/blob/master/ulib/FStar.ST.fst#L68" xlink:title="FStar.ST.fst:68">
<path fill="none" stroke="#000000" d="M599.7897,-372.5679C647.122,-364.8473 732.1245,-348.8205 801.5438,-324 803.4191,-323.3295 805.323,-322.5852 807.2259,-321.7919"/>
<polygon fill="#000000" stroke="#000000" points="808.9413,-324.8567 816.5952,-317.5309 806.0434,-318.4847 808.9413,-324.8567"/>
</a>
</g>
</g>
<!-- STATE&#45;&gt;DIV -->
<g id="edge4" class="edge">
<title>STATE&#45;&gt;DIV</title>
<g id="a_edge4"><a xlink:href="http://github.com/FStarLang/FStar/blob/master/ulib/reclaimable/FStar.ST.fst#L31" xlink:title="reclaimable/FStar.ST.fst:31">
<path fill="none" stroke="#000000" d="M601.1466,-376.5771C675.0015,-372.989 835.167,-361.0346 873.5438,-324 889.9081,-308.2081 893.9457,-282.1358 894.3069,-262.1071"/>
<polygon fill="#000000" stroke="#000000" points="897.8054,-261.9495 894.1956,-251.9887 890.8059,-262.0266 897.8054,-261.9495"/>
</a>
</g>
</g>
<!-- READER -->
<g id="node8" class="node">
<title>READER</title>
<g id="a_node8"><a xlink:href="http://github.com/FStarLang/FStar/blob/master/ulib/FStar.Reader.fst#L82" xlink:title="FStar.Reader.fst:82">
<ellipse fill="none" stroke="#000000" cx="563.5438" cy="-306" rx="42.7926" ry="18"/>
<text text-anchor="middle" x="563.5438" y="-302.3" font-family="Times-Roman" font-size="14.00" fill="#000000">READER</text>
</a>
</g>
</g>
<!-- STATE&#45;&gt;READER -->
<g id="edge10" class="edge">
<title>STATE&#45;&gt;READER</title>
<g id="a_edge10"><a xlink:href="http://github.com/FStarLang/FStar/blob/master/ulib/FStar.Reader.fst#L93" xlink:title="FStar.Reader.fst:93">
<path fill="none" stroke="#000000" d="M563.5438,-359.8314C563.5438,-352.131 563.5438,-342.9743 563.5438,-334.4166"/>
<polygon fill="#000000" stroke="#000000" points="567.0439,-334.4132 563.5438,-324.4133 560.0439,-334.4133 567.0439,-334.4132"/>
</a>
</g>
</g>
<!-- Unsafe -->
<g id="node16" class="node">
<title>Unsafe</title>
<g id="a_node16"><a xlink:href="http://github.com/FStarLang/FStar/blob/master/ulib/FStar.HyperStack.ST.fsti#L97" xlink:title="FStar.HyperStack.ST.fsti:97">
<ellipse fill="none" stroke="#000000" stroke-dasharray="1,5" cx="667.5438" cy="-306" rx="42.7926" ry="18"/>
<text text-anchor="middle" x="667.5438" y="-302.3" font-family="Times-Roman" font-size="14.00" fill="#000000">Unsafe</text>
</a>
</g>
</g>
<!-- STATE&#45;&gt;Unsafe -->
<g id="edge15" class="edge">
<title>STATE&#45;&gt;Unsafe</title>
<path fill="none" stroke="#000000" stroke-dasharray="1,5" d="M585.0927,-363.0816C600.0895,-352.6991 620.3038,-338.7046 636.9635,-327.171"/>
<polygon fill="#000000" stroke="#000000" points="639.0753,-329.9659 645.305,-321.3961 635.0908,-324.2106 639.0753,-329.9659"/>
</g>
<!-- Stack -->
<g id="node17" class="node">
<title>Stack</title>
<g id="a_node17"><a xlink:href="http://github.com/FStarLang/FStar/blob/master/ulib/FStar.HyperStack.ST.fsti#L202" xlink:title="FStar.HyperStack.ST.fsti:202">
<ellipse fill="none" stroke="#000000" stroke-dasharray="1,5" cx="464.5438" cy="-306" rx="37.8943" ry="18"/>
<text text-anchor="middle" x="464.5438" y="-302.3" font-family="Times-Roman" font-size="14.00" fill="#000000">Stack</text>
</a>
</g>
</g>
<!-- STATE&#45;&gt;Stack -->
<g id="edge16" class="edge">
<title>STATE&#45;&gt;Stack</title>
<path fill="none" stroke="#000000" stroke-dasharray="1,5" d="M542.5485,-362.7307C528.3729,-352.4212 509.4663,-338.6709 493.8171,-327.2896"/>
<polygon fill="#000000" stroke="#000000" points="495.6549,-324.2985 485.5089,-321.2473 491.5377,-329.9597 495.6549,-324.2985"/>
</g>
<!-- Heap -->
<g id="node18" class="node">
<title>Heap</title>
<g id="a_node18"><a xlink:href="http://github.com/FStarLang/FStar/blob/master/ulib/FStar.HyperStack.ST.fsti#L213" xlink:title="FStar.HyperStack.ST.fsti:213">
<ellipse fill="none" stroke="#000000" stroke-dasharray="1,5" cx="760.5438" cy="-306" rx="32.4942" ry="18"/>
<text text-anchor="middle" x="760.5438" y="-302.3" font-family="Times-Roman" font-size="14.00" fill="#000000">Heap</text>
</a>
</g>
</g>
<!-- STATE&#45;&gt;Heap -->
<g id="edge17" class="edge">
<title>STATE&#45;&gt;Heap</title>
<path fill="none" stroke="#000000" stroke-dasharray="1,5" d="M594.8912,-367.9722C626.585,-357.6415 676.8487,-340.7304 719.5438,-324 721.6021,-323.1934 723.7091,-322.344 725.8284,-321.4711"/>
<polygon fill="#000000" stroke="#000000" points="727.2413,-324.6737 735.0877,-317.5543 724.5142,-318.2268 727.2413,-324.6737"/>
</g>
<!-- ST -->
<g id="node19" class="node">
<title>ST</title>
<g id="a_node19"><a xlink:href="http://github.com/FStarLang/FStar/blob/master/ulib/FStar.HyperStack.ST.fsti#L226" xlink:title="FStar.HyperStack.ST.fsti:226">
<ellipse fill="none" stroke="#000000" stroke-dasharray="1,5" cx="184.5438" cy="-306" rx="27" ry="18"/>
<text text-anchor="middle" x="184.5438" y="-302.3" font-family="Times-Roman" font-size="14.00" fill="#000000">ST</text>
</a>
</g>
</g>
<!-- STATE&#45;&gt;ST -->
<g id="edge18" class="edge">
<title>STATE&#45;&gt;ST</title>
<path fill="none" stroke="#000000" stroke-dasharray="1,5" d="M525.877,-375.8562C461.7929,-371.38 328.0449,-358.4237 220.5438,-324 218.6472,-323.3927 216.7267,-322.6975 214.8111,-321.9415"/>
<polygon fill="#000000" stroke="#000000" points="215.9689,-318.6265 205.4078,-317.7806 213.1363,-325.0278 215.9689,-318.6265"/>
</g>
<!-- StackInline -->
<g id="node21" class="node">
<title>StackInline</title>
<g id="a_node21"><a xlink:href="http://github.com/FStarLang/FStar/blob/master/ulib/FStar.HyperStack.ST.fsti#L246" xlink:title="FStar.HyperStack.ST.fsti:246">
<ellipse fill="none" stroke="#000000" stroke-dasharray="1,5" cx="69.5438" cy="-306" rx="69.5877" ry="18"/>
<text text-anchor="middle" x="69.5438" y="-302.3" font-family="Times-Roman" font-size="14.00" fill="#000000">StackInline</text>
</a>
</g>
</g>
<!-- STATE&#45;&gt;StackInline -->
<g id="edge20" class="edge">
<title>STATE&#45;&gt;StackInline</title>
<path fill="none" stroke="#000000" stroke-dasharray="1,5" d="M526.4442,-374.3636C453.6509,-366.966 287.1227,-348.7462 148.5438,-324 142.6888,-322.9545 136.6129,-321.7633 130.5487,-320.5031"/>
<polygon fill="#000000" stroke="#000000" points="130.9063,-317.0005 120.3953,-318.3307 129.4417,-323.8455 130.9063,-317.0005"/>
</g>
<!-- Inline -->
<g id="node22" class="node">
<title>Inline</title>
<g id="a_node22"><a xlink:href="http://github.com/FStarLang/FStar/blob/master/ulib/FStar.HyperStack.ST.fsti#L264" xlink:title="FStar.HyperStack.ST.fsti:264">
<ellipse fill="none" stroke="#000000" stroke-dasharray="1,5" cx="272.5438" cy="-306" rx="42.7926" ry="18"/>
<text text-anchor="middle" x="272.5438" y="-302.3" font-family="Times-Roman" font-size="14.00" fill="#000000">Inline</text>
</a>
</g>
</g>
<!-- STATE&#45;&gt;Inline -->
<g id="edge21" class="edge">
<title>STATE&#45;&gt;Inline</title>
<path fill="none" stroke="#000000" stroke-dasharray="1,5" d="M528.4056,-371.3327C481.5321,-362.15 396.1344,-344.4101 324.5438,-324 321.3742,-323.0964 318.1145,-322.1094 314.8465,-321.0779"/>
<polygon fill="#000000" stroke="#000000" points="315.6924,-317.6721 305.0997,-317.8889 313.5156,-324.3251 315.6924,-317.6721"/>
</g>
<!-- State -->
<g id="node32" class="node">
<title>State</title>
<g id="a_node32"><a xlink:href="http://github.com/FStarLang/FStar/blob/master/ulib/FStar.ST.fst#L69" xlink:title="FStar.ST.fst:69">
<ellipse fill="none" stroke="#000000" stroke-dasharray="1,5" cx="371.5438" cy="-306" rx="37.8943" ry="18"/>
<text text-anchor="middle" x="371.5438" y="-302.3" font-family="Times-Roman" font-size="14.00" fill="#000000">State</text>
</a>
</g>
</g>
<!-- STATE&#45;&gt;State -->
<g id="edge31" class="edge">
<title>STATE&#45;&gt;State</title>
<path fill="none" stroke="#000000" stroke-dasharray="1,5" d="M533.283,-366.9951C503.7129,-356.1971 457.452,-339.1869 417.5438,-324 415.1594,-323.0926 412.7079,-322.153 410.2371,-321.201"/>
<polygon fill="#000000" stroke="#000000" points="411.3022,-317.8601 400.7132,-317.509 408.7721,-324.3869 411.3022,-317.8601"/>
</g>
<!-- PURE -->
<g id="node13" class="node">
<title>PURE</title>
<g id="a_node13"><a xlink:href="http://github.com/FStarLang/FStar/blob/master/ulib/prims.fst#L218" xlink:title="prims.fst:218">
<ellipse fill="#bae3ff" stroke="#000000" cx="908.5438" cy="-162" rx="32.4942" ry="18"/>
<text text-anchor="middle" x="908.5438" y="-158.3" font-family="Times-Roman" font-size="14.00" fill="#000000">PURE</text>
</a>
</g>
</g>
<!-- DIV&#45;&gt;PURE -->
<g id="edge11" class="edge">
<title>DIV&#45;&gt;PURE</title>
<g id="a_edge11"><a xlink:href="http://github.com/FStarLang/FStar/blob/master/ulib/FStar.Pervasives.fst#L37" xlink:title="FStar.Pervasives.fst:37">
<path fill="none" stroke="#000000" d="M896.5813,-215.8314C898.3379,-207.9266 900.4356,-198.4872 902.3802,-189.7365"/>
<polygon fill="#000000" stroke="#000000" points="905.8103,-190.4346 904.5631,-179.9134 898.977,-188.916 905.8103,-190.4346"/>
</a>
</g>
</g>
<!-- Div -->
<g id="node24" class="node">
<title>Div</title>
<g id="a_node24"><a xlink:href="http://github.com/FStarLang/FStar/blob/master/ulib/FStar.Pervasives.fst#L38" xlink:title="FStar.Pervasives.fst:38">
<ellipse fill="none" stroke="#000000" stroke-dasharray="1,5" cx="831.5438" cy="-162" rx="27" ry="18"/>
<text text-anchor="middle" x="831.5438" y="-158.3" font-family="Times-Roman" font-size="14.00" fill="#000000">Div</text>
</a>
</g>
</g>
<!-- DIV&#45;&gt;Div -->
<g id="edge23" class="edge">
<title>DIV&#45;&gt;Div</title>
<path fill="none" stroke="#000000" stroke-dasharray="1,5" d="M879.006,-218.0209C870.9505,-208.5128 860.5805,-196.2728 851.5895,-185.6604"/>
<polygon fill="#000000" stroke="#000000" points="854.1785,-183.3019 845.0439,-177.9345 848.8376,-187.8268 854.1785,-183.3019"/>
</g>
<!-- Dv -->
<g id="node25" class="node">
<title>Dv</title>
<g id="a_node25"><a xlink:href="http://github.com/FStarLang/FStar/blob/master/ulib/FStar.Pervasives.fst#L41" xlink:title="FStar.Pervasives.fst:41">
<ellipse fill="none" stroke="#000000" stroke-dasharray="1,5" cx="755.5438" cy="-162" rx="27" ry="18"/>
<text text-anchor="middle" x="755.5438" y="-158.3" font-family="Times-Roman" font-size="14.00" fill="#000000">Dv</text>
</a>
</g>
</g>
<!-- DIV&#45;&gt;Dv -->
<g id="edge24" class="edge">
<title>DIV&#45;&gt;Dv</title>
<path fill="none" stroke="#000000" stroke-dasharray="1,5" d="M871.1376,-222.75C848.215,-210.7031 811.6555,-191.4893 785.7972,-177.8996"/>
<polygon fill="#000000" stroke="#000000" points="787.28,-174.725 776.7998,-173.171 784.0235,-180.9214 787.28,-174.725"/>
</g>
<!-- STATE_h -->
<g id="node5" class="node">
<title>STATE_h</title>
<g id="a_node5"><a xlink:href="http://github.com/FStarLang/FStar/blob/master/ulib/FStar.Pervasives.fst#L99" xlink:title="FStar.Pervasives.fst:99">
<ellipse fill="none" stroke="#000000" cx="1059.5438" cy="-450" rx="48.1917" ry="18"/>
<text text-anchor="middle" x="1059.5438" y="-446.3" font-family="Times-Roman" font-size="14.00" fill="#000000">STATE_h</text>
</a>
</g>
</g>
<!-- EXN&#45;&gt;DIV -->
<g id="edge5" class="edge">
<title>EXN&#45;&gt;DIV</title>
<g id="a_edge5"><a xlink:href="http://github.com/FStarLang/FStar/blob/master/ulib/FStar.Pervasives.fst#L172" xlink:title="FStar.Pervasives.fst:172">
<path fill="none" stroke="#000000" d="M925.8079,-360.0535C919.3226,-335.4774 907.6121,-291.1008 899.9584,-262.0974"/>
<polygon fill="#000000" stroke="#000000" points="903.2752,-260.9487 897.3394,-252.1727 896.5069,-262.7348 903.2752,-260.9487"/>
</a>
</g>
</g>
<!-- Exn -->
<g id="node27" class="node">
<title>Exn</title>
<g id="a_node27"><a xlink:href="http://github.com/FStarLang/FStar/blob/master/ulib/FStar.Pervasives.fst#L168" xlink:title="FStar.Pervasives.fst:168">
<ellipse fill="none" stroke="#000000" stroke-dasharray="1,5" cx="1308.5438" cy="-306" rx="27" ry="18"/>
<text text-anchor="middle" x="1308.5438" y="-302.3" font-family="Times-Roman" font-size="14.00" fill="#000000">Exn</text>
</a>
</g>
</g>
<!-- EXN&#45;&gt;Exn -->
<g id="edge26" class="edge">
<title>EXN&#45;&gt;Exn</title>
<path fill="none" stroke="#000000" stroke-dasharray="1,5" d="M951.406,-366.2136C956.2568,-363.8584 961.4849,-361.6156 966.5438,-360 1065.5247,-328.3893 1094.9269,-340.3162 1197.5438,-324 1222.3974,-320.0482 1250.3658,-315.5123 1272.0104,-311.9824"/>
<polygon fill="#000000" stroke="#000000" points="1272.7813,-315.403 1282.0866,-310.3374 1271.6533,-308.4945 1272.7813,-315.403"/>
</g>
<!-- ALL_h -->
<g id="node7" class="node">
<title>ALL_h</title>
<g id="a_node7"><a xlink:href="http://github.com/FStarLang/FStar/blob/master/ulib/FStar.Pervasives.fst#L222" xlink:title="FStar.Pervasives.fst:222">
<ellipse fill="none" stroke="#000000" cx="1163.5438" cy="-450" rx="37.8943" ry="18"/>
<text text-anchor="middle" x="1163.5438" y="-446.3" font-family="Times-Roman" font-size="14.00" fill="#000000">ALL_h</text>
</a>
</g>
</g>
<!-- READER&#45;&gt;DIV -->
<g id="edge6" class="edge">
<title>READER&#45;&gt;DIV</title>
<g id="a_edge6"><a xlink:href="http://github.com/FStarLang/FStar/blob/master/ulib/FStar.Reader.fst#L95" xlink:title="FStar.Reader.fst:95">
<path fill="none" stroke="#000000" d="M595.7795,-294.0537C602.2722,-291.8711 609.0862,-289.7378 615.5438,-288 700.4841,-265.1412 802.5204,-247.786 855.8994,-239.4573"/>
<polygon fill="#000000" stroke="#000000" points="856.5577,-242.8972 865.9069,-237.913 855.49,-235.9791 856.5577,-242.8972"/>
</a>
</g>
</g>
<!-- STRead -->
<g id="node14" class="node">
<title>STRead</title>
<g id="a_node14"><a xlink:href="http://github.com/FStarLang/FStar/blob/master/ulib/FStar.Reader.fst#L83" xlink:title="FStar.Reader.fst:83">
<ellipse fill="none" stroke="#000000" stroke-dasharray="1,5" cx="563.5438" cy="-234" rx="42.7926" ry="18"/>
<text text-anchor="middle" x="563.5438" y="-230.3" font-family="Times-Roman" font-size="14.00" fill="#000000">STRead</text>
</a>
</g>
</g>
<!-- READER&#45;&gt;STRead -->
<g id="edge13" class="edge">
<title>READER&#45;&gt;STRead</title>
<path fill="none" stroke="#000000" stroke-dasharray="1,5" d="M563.5438,-287.8314C563.5438,-280.131 563.5438,-270.9743 563.5438,-262.4166"/>
<polygon fill="#000000" stroke="#000000" points="567.0439,-262.4132 563.5438,-252.4133 560.0439,-262.4133 567.0439,-262.4132"/>
</g>
<!-- READER_h -->
<g id="node9" class="node">
<title>READER_h</title>
<g id="a_node9"><a xlink:href="http://github.com/FStarLang/FStar/blob/master/ulib/FStar.Reader.fst#L68" xlink:title="FStar.Reader.fst:68">
<ellipse fill="none" stroke="#000000" cx="1273.5438" cy="-450" rx="53.8905" ry="18"/>
<text text-anchor="middle" x="1273.5438" y="-446.3" font-family="Times-Roman" font-size="14.00" fill="#000000">READER_h</text>
</a>
</g>
</g>
<!-- STATE2 -->
<g id="node10" class="node">
<title>STATE2</title>
<g id="a_node10"><a xlink:href="http://github.com/FStarLang/FStar/blob/master/ulib/FStar.Relational.Comp.fst#L24" xlink:title="FStar.Relational.Comp.fst:24">
<ellipse fill="none" stroke="#000000" cx="1001.5438" cy="-306" rx="42.7926" ry="18"/>
<text text-anchor="middle" x="1001.5438" y="-302.3" font-family="Times-Roman" font-size="14.00" fill="#000000">STATE2</text>
</a>
</g>
</g>
<!-- STATE2&#45;&gt;DIV -->
<g id="edge7" class="edge">
<title>STATE2&#45;&gt;DIV</title>
<g id="a_edge7"><a xlink:href="http://github.com/FStarLang/FStar/blob/master/ulib/FStar.Relational.Comp.fst#L33" xlink:title="FStar.Relational.Comp.fst:33">
<path fill="none" stroke="#000000" d="M978.4277,-290.7307C961.4572,-279.5208 938.3281,-264.2428 920.3474,-252.3657"/>
<polygon fill="#000000" stroke="#000000" points="922.2568,-249.4323 911.9837,-246.841 918.3986,-255.2731 922.2568,-249.4323"/>
</a>
</g>
</g>
<!-- ST2 -->
<g id="node30" class="node">
<title>ST2</title>
<g id="a_node30"><a xlink:href="http://github.com/FStarLang/FStar/blob/master/ulib/FStar.Relational.Comp.fst#L29" xlink:title="FStar.Relational.Comp.fst:29">
<ellipse fill="none" stroke="#000000" stroke-dasharray="1,5" cx="985.5438" cy="-234" rx="27" ry="18"/>
<text text-anchor="middle" x="985.5438" y="-230.3" font-family="Times-Roman" font-size="14.00" fill="#000000">ST2</text>
</a>
</g>
</g>
<!-- STATE2&#45;&gt;ST2 -->
<g id="edge29" class="edge">
<title>STATE2&#45;&gt;ST2</title>
<path fill="none" stroke="#000000" stroke-dasharray="1,5" d="M997.5064,-287.8314C995.7497,-279.9266 993.6521,-270.4872 991.7075,-261.7365"/>
<polygon fill="#000000" stroke="#000000" points="995.1106,-260.916 989.5246,-251.9134 988.2773,-262.4346 995.1106,-260.916"/>
</g>
<!-- TAC -->
<g id="node11" class="node">
<title>TAC</title>
<g id="a_node11"><a xlink:href="http://github.com/FStarLang/FStar/blob/master/ulib/FStar.Tactics.Effect.fst#L83" xlink:title="FStar.Tactics.Effect.fst:83">
<ellipse fill="none" stroke="#000000" cx="1161.5438" cy="-306" rx="27" ry="18"/>
<text text-anchor="middle" x="1161.5438" y="-302.3" font-family="Times-Roman" font-size="14.00" fill="#000000">TAC</text>
</a>
</g>
</g>
<!-- TAC&#45;&gt;DIV -->
<g id="edge8" class="edge">
<title>TAC&#45;&gt;DIV</title>
<g id="a_edge8"><a xlink:href="http://github.com/FStarLang/FStar/blob/master/ulib/FStar.Tactics.Effect.fst#L109" xlink:title="FStar.Tactics.Effect.fst:109">
<path fill="none" stroke="#000000" d="M1135.9653,-299.9786C1095.9976,-290.459 1016.3868,-271.0508 949.5438,-252 942.0494,-249.864 934.0471,-247.4324 926.4798,-245.0622"/>
<polygon fill="#000000" stroke="#000000" points="927.4519,-241.6988 916.8617,-242.012 925.3358,-248.3713 927.4519,-241.6988"/>
</a>
</g>
</g>
<!-- TacH -->
<g id="node33" class="node">
<title>TacH</title>
<g id="a_node33"><a xlink:href="http://github.com/FStarLang/FStar/blob/master/ulib/FStar.Tactics.Effect.fst#L93" xlink:title="FStar.Tactics.Effect.fst:93">
<ellipse fill="none" stroke="#000000" stroke-dasharray="1,5" cx="1233.5438" cy="-234" rx="32.4942" ry="18"/>
<text text-anchor="middle" x="1233.5438" y="-230.3" font-family="Times-Roman" font-size="14.00" fill="#000000">TacH</text>
</a>
</g>
</g>
<!-- TAC&#45;&gt;TacH -->
<g id="edge32" class="edge">
<title>TAC&#45;&gt;TacH</title>
<path fill="none" stroke="#000000" stroke-dasharray="1,5" d="M1176.8132,-290.7307C1186.4725,-281.0713 1199.1524,-268.3915 1210.0742,-257.4696"/>
<polygon fill="#000000" stroke="#000000" points="1212.6996,-259.794 1217.2958,-250.248 1207.7499,-254.8442 1212.6996,-259.794"/>
</g>
<!-- GHOST -->
<g id="node12" class="node">
<title>GHOST</title>
<g id="a_node12"><a xlink:href="http://github.com/FStarLang/FStar/blob/master/ulib/prims.fst#L243" xlink:title="prims.fst:243">
<ellipse fill="#bae3ff" stroke="#000000" cx="1068.5438" cy="-234" rx="37.8943" ry="18"/>
<text text-anchor="middle" x="1068.5438" y="-230.3" font-family="Times-Roman" font-size="14.00" fill="#000000">GHOST</text>
</a>
</g>
</g>
<!-- GHOST&#45;&gt;PURE -->
<g id="edge12" class="edge">
<title>GHOST&#45;&gt;PURE</title>
<g id="a_edge12"><a xlink:href="http://github.com/FStarLang/FStar/blob/master/ulib/prims.fst#L250" xlink:title="prims.fst:250">
<path fill="none" stroke="#000000" d="M1041.0388,-221.6228C1013.9865,-209.4492 972.5957,-190.8234 943.2849,-177.6335"/>
<polygon fill="#000000" stroke="#000000" points="944.4015,-174.2979 933.8459,-173.3859 941.5289,-180.6814 944.4015,-174.2979"/>
</a>
</g>
</g>
<!-- GTot -->
<g id="node40" class="node">
<title>GTot</title>
<g id="a_node40"><a xlink:href="http://github.com/FStarLang/FStar/blob/master/ulib/prims.fst#L254" xlink:title="prims.fst:254">
<ellipse fill="#bae3ff" stroke="#000000" stroke-dasharray="1,5" cx="1062.5438" cy="-162" rx="32.4942" ry="18"/>
<text text-anchor="middle" x="1062.5438" y="-158.3" font-family="Times-Roman" font-size="14.00" fill="#000000">GTot</text>
</a>
</g>
</g>
<!-- GHOST&#45;&gt;GTot -->
<g id="edge39" class="edge">
<title>GHOST&#45;&gt;GTot</title>
<path fill="none" stroke="#000000" stroke-dasharray="1,5" d="M1067.0298,-215.8314C1066.3881,-208.131 1065.625,-198.9743 1064.9119,-190.4166"/>
<polygon fill="#000000" stroke="#000000" points="1068.3967,-190.088 1064.0783,-180.4133 1061.4209,-190.6694 1068.3967,-190.088"/>
</g>
<!-- Ghost -->
<g id="node41" class="node">
<title>Ghost</title>
<g id="a_node41"><a xlink:href="http://github.com/FStarLang/FStar/blob/master/ulib/prims.fst#L255" xlink:title="prims.fst:255">
<ellipse fill="#bae3ff" stroke="#000000" stroke-dasharray="1,5" cx="1150.5438" cy="-162" rx="37.8943" ry="18"/>
<text text-anchor="middle" x="1150.5438" y="-158.3" font-family="Times-Roman" font-size="14.00" fill="#000000">Ghost</text>
</a>
</g>
</g>
<!-- GHOST&#45;&gt;Ghost -->
<g id="edge40" class="edge">
<title>GHOST&#45;&gt;Ghost</title>
<path fill="none" stroke="#000000" stroke-dasharray="1,5" d="M1086.7423,-218.0209C1097.8893,-208.2332 1112.3336,-195.5505 1124.6588,-184.7284"/>
<polygon fill="#000000" stroke="#000000" points="1127.1911,-187.1626 1132.3962,-177.9345 1122.5725,-181.9025 1127.1911,-187.1626"/>
</g>
<!-- Pure -->
<g id="node37" class="node">
<title>Pure</title>
<g id="a_node37"><a xlink:href="http://github.com/FStarLang/FStar/blob/master/ulib/prims.fst#L236" xlink:title="prims.fst:236">
<ellipse fill="#bae3ff" stroke="#000000" stroke-dasharray="1,5" cx="993.5438" cy="-90" rx="32.4942" ry="18"/>
<text text-anchor="middle" x="993.5438" y="-86.3" font-family="Times-Roman" font-size="14.00" fill="#000000">Pure</text>
</a>
</g>
</g>
<!-- PURE&#45;&gt;Pure -->
<g id="edge36" class="edge">
<title>PURE&#45;&gt;Pure</title>
<path fill="none" stroke="#000000" stroke-dasharray="1,5" d="M926.5701,-146.7307C938.5157,-136.6121 954.3742,-123.179 967.661,-111.9243"/>
<polygon fill="#000000" stroke="#000000" points="970.1752,-114.3815 975.5435,-105.2473 965.6508,-109.0401 970.1752,-114.3815"/>
</g>
<!-- Admit -->
<g id="node38" class="node">
<title>Admit</title>
<g id="a_node38"><a xlink:href="http://github.com/FStarLang/FStar/blob/master/ulib/prims.fst#L238" xlink:title="prims.fst:238">
<ellipse fill="#bae3ff" stroke="#000000" stroke-dasharray="1,5" cx="830.5438" cy="-90" rx="37.8943" ry="18"/>
<text text-anchor="middle" x="830.5438" y="-86.3" font-family="Times-Roman" font-size="14.00" fill="#000000">Admit</text>
</a>
</g>
</g>
<!-- PURE&#45;&gt;Admit -->
<g id="edge37" class="edge">
<title>PURE&#45;&gt;Admit</title>
<path fill="none" stroke="#000000" stroke-dasharray="1,5" d="M891.619,-146.3771C881.0337,-136.606 867.2133,-123.8487 855.3971,-112.9415"/>
<polygon fill="#000000" stroke="#000000" points="857.6978,-110.302 847.9757,-106.091 852.9498,-115.4456 857.6978,-110.302"/>
</g>
<!-- Tot -->
<g id="node39" class="node">
<title>Tot</title>
<g id="a_node39"><a xlink:href="http://github.com/FStarLang/FStar/blob/master/ulib/prims.fst#L242" xlink:title="prims.fst:242">
<ellipse fill="#bae3ff" stroke="#000000" stroke-dasharray="1,5" cx="913.5438" cy="-90" rx="27" ry="18"/>
<text text-anchor="middle" x="913.5438" y="-86.3" font-family="Times-Roman" font-size="14.00" fill="#000000">Tot</text>
</a>
</g>
</g>
<!-- PURE&#45;&gt;Tot -->
<g id="edge38" class="edge">
<title>PURE&#45;&gt;Tot</title>
<path fill="none" stroke="#000000" stroke-dasharray="1,5" d="M909.8055,-143.8314C910.3403,-136.131 910.9762,-126.9743 911.5705,-118.4166"/>
<polygon fill="#000000" stroke="#000000" points="915.0639,-118.6317 912.2651,-108.4133 908.0807,-118.1467 915.0639,-118.6317"/>
</g>
<!-- STL -->
<g id="node23" class="node">
<title>STL</title>
<g id="a_node23"><a xlink:href="http://github.com/FStarLang/FStar/blob/master/ulib/FStar.HyperStack.ST.fsti#L272" xlink:title="FStar.HyperStack.ST.fsti:272">
<ellipse fill="none" stroke="#000000" stroke-dasharray="1,5" cx="464.5438" cy="-234" rx="27" ry="18"/>
<text text-anchor="middle" x="464.5438" y="-230.3" font-family="Times-Roman" font-size="14.00" fill="#000000">STL</text>
</a>
</g>
</g>
<!-- Stack&#45;&gt;STL -->
<g id="edge22" class="edge">
<title>Stack&#45;&gt;STL</title>
<path fill="none" stroke="#000000" stroke-dasharray="1,5" d="M464.5438,-287.8314C464.5438,-280.131 464.5438,-270.9743 464.5438,-262.4166"/>
<polygon fill="#000000" stroke="#000000" points="468.0439,-262.4132 464.5438,-252.4133 461.0439,-262.4133 468.0439,-262.4132"/>
</g>
<!-- St -->
<g id="node20" class="node">
<title>St</title>
<g id="a_node20"><a xlink:href="http://github.com/FStarLang/FStar/blob/master/ulib/FStar.HyperStack.ST.fsti#L229" xlink:title="FStar.HyperStack.ST.fsti:229">
<ellipse fill="none" stroke="#000000" stroke-dasharray="1,5" cx="184.5438" cy="-234" rx="27" ry="18"/>
<text text-anchor="middle" x="184.5438" y="-230.3" font-family="Times-Roman" font-size="14.00" fill="#000000">St</text>
</a>
</g>
</g>
<!-- ST&#45;&gt;St -->
<g id="edge19" class="edge">
<title>ST&#45;&gt;St</title>
<path fill="none" stroke="#000000" stroke-dasharray="1,5" d="M184.5438,-287.8314C184.5438,-280.131 184.5438,-270.9743 184.5438,-262.4166"/>
<polygon fill="#000000" stroke="#000000" points="188.0439,-262.4132 184.5438,-252.4133 181.0439,-262.4133 188.0439,-262.4132"/>
</g>
<!-- EXT -->
<g id="node26" class="node">
<title>EXT</title>
<g id="a_node26"><a xlink:href="http://github.com/FStarLang/FStar/blob/master/ulib/FStar.Pervasives.fst#L47" xlink:title="FStar.Pervasives.fst:47">
<ellipse fill="none" stroke="#000000" stroke-dasharray="1,5" cx="747.5438" cy="-90" rx="27" ry="18"/>
<text text-anchor="middle" x="747.5438" y="-86.3" font-family="Times-Roman" font-size="14.00" fill="#000000">EXT</text>
</a>
</g>
</g>
<!-- Dv&#45;&gt;EXT -->
<g id="edge25" class="edge">
<title>Dv&#45;&gt;EXT</title>
<path fill="none" stroke="#000000" stroke-dasharray="1,5" d="M753.5251,-143.8314C752.6695,-136.131 751.6521,-126.9743 750.7012,-118.4166"/>
<polygon fill="#000000" stroke="#000000" points="754.1727,-117.9656 749.5897,-108.4133 747.2156,-118.7386 754.1727,-117.9656"/>
</g>
<!-- Ex -->
<g id="node28" class="node">
<title>Ex</title>
<g id="a_node28"><a xlink:href="http://github.com/FStarLang/FStar/blob/master/ulib/FStar.Pervasives.fst#L173" xlink:title="FStar.Pervasives.fst:173">
<ellipse fill="none" stroke="#000000" stroke-dasharray="1,5" cx="1310.5438" cy="-234" rx="27" ry="18"/>
<text text-anchor="middle" x="1310.5438" y="-230.3" font-family="Times-Roman" font-size="14.00" fill="#000000">Ex</text>
</a>
</g>
</g>
<!-- Exn&#45;&gt;Ex -->
<g id="edge27" class="edge">
<title>Exn&#45;&gt;Ex</title>
<path fill="none" stroke="#000000" stroke-dasharray="1,5" d="M1309.0485,-287.8314C1309.2624,-280.131 1309.5168,-270.9743 1309.7545,-262.4166"/>
<polygon fill="#000000" stroke="#000000" points="1313.2532,-262.5066 1310.0323,-252.4133 1306.2559,-262.3122 1313.2532,-262.5066"/>
</g>
<!-- St2 -->
<g id="node31" class="node">
<title>St2</title>
<g id="a_node31"><a xlink:href="http://github.com/FStarLang/FStar/blob/master/ulib/FStar.Relational.Comp.fst#L32" xlink:title="FStar.Relational.Comp.fst:32">
<ellipse fill="none" stroke="#000000" stroke-dasharray="1,5" cx="985.5438" cy="-162" rx="27" ry="18"/>
<text text-anchor="middle" x="985.5438" y="-158.3" font-family="Times-Roman" font-size="14.00" fill="#000000">St2</text>
</a>
</g>
</g>
<!-- ST2&#45;&gt;St2 -->
<g id="edge30" class="edge">
<title>ST2&#45;&gt;St2</title>
<path fill="none" stroke="#000000" stroke-dasharray="1,5" d="M985.5438,-215.8314C985.5438,-208.131 985.5438,-198.9743 985.5438,-190.4166"/>
<polygon fill="#000000" stroke="#000000" points="989.0439,-190.4132 985.5438,-180.4133 982.0439,-190.4133 989.0439,-190.4132"/>
</g>
<!-- Tac -->
<g id="node34" class="node">
<title>Tac</title>
<g id="a_node34"><a xlink:href="http://github.com/FStarLang/FStar/blob/master/ulib/FStar.Tactics.Effect.fst#L97" xlink:title="FStar.Tactics.Effect.fst:97">
<ellipse fill="none" stroke="#000000" stroke-dasharray="1,5" cx="1233.5438" cy="-162" rx="27" ry="18"/>
<text text-anchor="middle" x="1233.5438" y="-158.3" font-family="Times-Roman" font-size="14.00" fill="#000000">Tac</text>
</a>
</g>
</g>
<!-- TacH&#45;&gt;Tac -->
<g id="edge33" class="edge">
<title>TacH&#45;&gt;Tac</title>
<path fill="none" stroke="#000000" stroke-dasharray="1,5" d="M1233.5438,-215.8314C1233.5438,-208.131 1233.5438,-198.9743 1233.5438,-190.4166"/>
<polygon fill="#000000" stroke="#000000" points="1237.0439,-190.4132 1233.5438,-180.4133 1230.0439,-190.4133 1237.0439,-190.4132"/>
</g>
<!-- TacS -->
<g id="node35" class="node">
<title>TacS</title>
<g id="a_node35"><a xlink:href="http://github.com/FStarLang/FStar/blob/master/ulib/FStar.Tactics.Effect.fst#L100" xlink:title="FStar.Tactics.Effect.fst:100">
<ellipse fill="none" stroke="#000000" stroke-dasharray="1,5" cx="1310.5438" cy="-162" rx="32.4942" ry="18"/>
<text text-anchor="middle" x="1310.5438" y="-158.3" font-family="Times-Roman" font-size="14.00" fill="#000000">TacS</text>
</a>
</g>
</g>
<!-- TacH&#45;&gt;TacS -->
<g id="edge34" class="edge">
<title>TacH&#45;&gt;TacS</title>
<path fill="none" stroke="#000000" stroke-dasharray="1,5" d="M1250.2517,-218.3771C1260.8464,-208.4703 1274.7241,-195.4938 1286.4941,-184.4881"/>
<polygon fill="#000000" stroke="#000000" points="1288.9548,-186.9789 1293.8686,-177.5924 1284.1738,-181.8659 1288.9548,-186.9789"/>
</g>
<!-- TacF -->
<g id="node36" class="node">
<title>TacF</title>
<g id="a_node36"><a xlink:href="http://github.com/FStarLang/FStar/blob/master/ulib/FStar.Tactics.Effect.fst#L103" xlink:title="FStar.Tactics.Effect.fst:103">
<ellipse fill="none" stroke="#000000" stroke-dasharray="1,5" cx="1393.5438" cy="-162" rx="32.4942" ry="18"/>
<text text-anchor="middle" x="1393.5438" y="-158.3" font-family="Times-Roman" font-size="14.00" fill="#000000">TacF</text>
</a>
</g>
</g>
<!-- TacH&#45;&gt;TacF -->
<g id="edge35" class="edge">
<title>TacH&#45;&gt;TacF</title>
<path fill="none" stroke="#000000" stroke-dasharray="1,5" d="M1258.8963,-222.5914C1285.9302,-210.4261 1328.912,-191.0843 1359.0226,-177.5346"/>
<polygon fill="#000000" stroke="#000000" points="1360.627,-180.6507 1368.31,-173.3552 1357.7544,-174.2672 1360.627,-180.6507"/>
</g>
<!-- Lemma -->
<g id="node42" class="node">
<title>Lemma</title>
<g id="a_node42"><a xlink:href="http://github.com/FStarLang/FStar/blob/master/ulib/prims.fst#L392" xlink:title="prims.fst:392">
<ellipse fill="#bae3ff" stroke="#000000" stroke-dasharray="1,5" cx="994.5438" cy="-18" rx="37.8943" ry="18"/>
<text text-anchor="middle" x="994.5438" y="-14.3" font-family="Times-Roman" font-size="14.00" fill="#000000">Lemma</text>
</a>
</g>
</g>
<!-- Pure&#45;&gt;Lemma -->
<g id="edge41" class="edge">
<title>Pure&#45;&gt;Lemma</title>
<path fill="none" stroke="#000000" stroke-dasharray="1,5" d="M993.7962,-71.8314C993.9031,-64.131 994.0303,-54.9743 994.1492,-46.4166"/>
<polygon fill="#000000" stroke="#000000" points="997.6488,-46.4609 994.2881,-36.4133 990.6495,-46.3637 997.6488,-46.4609"/>
</g>
<!-- M -->
<g id="node43" class="node">
<title>M</title>
<g id="a_node43"><a xlink:href="http://github.com/FStarLang/FStar/blob/master/ulib/prims.fst#L398" xlink:title="prims.fst:398">
<ellipse fill="#bae3ff" stroke="#000000" stroke-dasharray="1,5" cx="911.5438" cy="-18" rx="27" ry="18"/>
<text text-anchor="middle" x="911.5438" y="-14.3" font-family="Times-Roman" font-size="14.00" fill="#000000">M</text>
</a>
</g>
</g>
<!-- Tot&#45;&gt;M -->
<g id="edge42" class="edge">
<title>Tot&#45;&gt;M</title>
<path fill="none" stroke="#000000" stroke-dasharray="1,5" d="M913.0391,-71.8314C912.8252,-64.131 912.5709,-54.9743 912.3332,-46.4166"/>
<polygon fill="#000000" stroke="#000000" points="915.8317,-46.3122 912.0553,-36.4133 908.8344,-46.5066 915.8317,-46.3122"/>
</g>
</g>
</svg>
