<?xml version="1.0" encoding="UTF-8" standalone="no"?>
<!DOCTYPE svg PUBLIC "-//W3C//DTD SVG 1.1//EN"
 "http://www.w3.org/Graphics/SVG/1.1/DTD/svg11.dtd">
<!-- Generated by graphviz version 2.40.1 (0)
 -->
<!-- Title: G Pages: 1 -->
<svg width="1353pt" height="548pt"
 viewBox="0.00 0.00 1353.00 548.00" xmlns="http://www.w3.org/2000/svg" xmlns:xlink="http://www.w3.org/1999/xlink">
<g id="graph0" class="graph" transform="scale(1 1) rotate(0) translate(4 544)">
<title>G</title>
<polygon fill="#ffffff" stroke="transparent" points="-4,4 -4,-544 1349,-544 1349,4 -4,4"/>
<!-- ALL -->
<g id="node1" class="node">
<title>ALL</title>
<g id="a_node1"><a xlink:href="http://github.com/FStarLang/FStar/blob/master/ulib/FStar.HyperStack.All.fst#L23" xlink:title="FStar.HyperStack.All.fst:23">
<ellipse fill="none" stroke="#000000" cx="1199" cy="-450" rx="27" ry="18"/>
<text text-anchor="middle" x="1199" y="-446.3" font-family="Times-Roman" font-size="14.00" fill="#000000">ALL</text>
</a>
</g>
</g>
<!-- STATE -->
<g id="node3" class="node">
<title>STATE</title>
<g id="a_node3"><a xlink:href="http://github.com/FStarLang/FStar/blob/master/ulib/reclaimable/FStar.ST.fst#L29" xlink:title="reclaimable/FStar.ST.fst:29">
<ellipse fill="none" stroke="#000000" cx="690" cy="-378" rx="37.8943" ry="18"/>
<text text-anchor="middle" x="690" y="-374.3" font-family="Times-Roman" font-size="14.00" fill="#000000">STATE</text>
</a>
</g>
</g>
<!-- ALL&#45;&gt;STATE -->
<g id="edge2" class="edge">
<title>ALL&#45;&gt;STATE</title>
<g id="a_edge2"><a xlink:href="http://github.com/FStarLang/FStar/blob/master/ulib/FStar.HyperStack.All.fst#L26" xlink:title="FStar.HyperStack.All.fst:26">
<path fill="none" stroke="#000000" d="M1172.3506,-446.2303C1090.2802,-434.6212 840.633,-399.3076 736.4449,-384.5698"/>
<polygon fill="#000000" stroke="#000000" points="736.6294,-381.0611 726.2377,-383.126 735.6489,-387.9921 736.6294,-381.0611"/>
</a>
</g>
</g>
<!-- EXN -->
<g id="node6" class="node">
<title>EXN</title>
<g id="a_node6"><a xlink:href="http://github.com/FStarLang/FStar/blob/master/ulib/FStar.Pervasives.fst#L154" xlink:title="FStar.Pervasives.fst:154">
<ellipse fill="none" stroke="#000000" cx="1174" cy="-378" rx="27" ry="18"/>
<text text-anchor="middle" x="1174" y="-374.3" font-family="Times-Roman" font-size="14.00" fill="#000000">EXN</text>
</a>
</g>
</g>
<!-- ALL&#45;&gt;EXN -->
<g id="edge9" class="edge">
<title>ALL&#45;&gt;EXN</title>
<g id="a_edge9"><a xlink:href="http://github.com/FStarLang/FStar/blob/master/ulib/FStar.HyperStack.All.fst#L29" xlink:title="FStar.HyperStack.All.fst:29">
<path fill="none" stroke="#000000" d="M1192.8202,-432.2022C1190.0047,-424.0936 1186.6087,-414.3129 1183.4809,-405.3049"/>
<polygon fill="#000000" stroke="#000000" points="1186.6952,-403.8917 1180.1087,-395.593 1180.0825,-406.1878 1186.6952,-403.8917"/>
</a>
</g>
</g>
<!-- All -->
<g id="node15" class="node">
<title>All</title>
<g id="a_node15"><a xlink:href="http://github.com/FStarLang/FStar/blob/master/ulib/FStar.All.fst#L33" xlink:title="FStar.All.fst:33">
<ellipse fill="none" stroke="#000000" stroke-dasharray="1,5" cx="1318" cy="-378" rx="27" ry="18"/>
<text text-anchor="middle" x="1318" y="-374.3" font-family="Times-Roman" font-size="14.00" fill="#000000">All</text>
</a>
</g>
</g>
<!-- ALL&#45;&gt;All -->
<g id="edge14" class="edge">
<title>ALL&#45;&gt;All</title>
<path fill="none" stroke="#000000" stroke-dasharray="1,5" d="M1219.1867,-437.7862C1238.334,-426.2013 1267.3127,-408.6679 1288.9437,-395.5803"/>
<polygon fill="#000000" stroke="#000000" points="1290.9702,-398.445 1297.7142,-390.2737 1287.3466,-392.4559 1290.9702,-398.445"/>
</g>
<!-- ML -->
<g id="node29" class="node">
<title>ML</title>
<g id="a_node29"><a xlink:href="http://github.com/FStarLang/FStar/blob/master/ulib/FStar.All.fst#L37" xlink:title="FStar.All.fst:37">
<ellipse fill="none" stroke="#000000" stroke-dasharray="1,5" cx="1246" cy="-378" rx="27" ry="18"/>
<text text-anchor="middle" x="1246" y="-374.3" font-family="Times-Roman" font-size="14.00" fill="#000000">ML</text>
</a>
</g>
</g>
<!-- ALL&#45;&gt;ML -->
<g id="edge28" class="edge">
<title>ALL&#45;&gt;ML</title>
<path fill="none" stroke="#000000" stroke-dasharray="1,5" d="M1209.9009,-433.3008C1215.7736,-424.3043 1223.1366,-413.0247 1229.6787,-403.0029"/>
<polygon fill="#000000" stroke="#000000" points="1232.6228,-404.8957 1235.1582,-394.6087 1226.7611,-401.0693 1232.6228,-404.8957"/>
</g>
<!-- GST -->
<g id="node2" class="node">
<title>GST</title>
<g id="a_node2"><a xlink:href="http://github.com/FStarLang/FStar/blob/master/ulib/FStar.ST.fst#L26" xlink:title="FStar.ST.fst:26">
<ellipse fill="none" stroke="#000000" cx="1119" cy="-306" rx="27" ry="18"/>
<text text-anchor="middle" x="1119" y="-302.3" font-family="Times-Roman" font-size="14.00" fill="#000000">GST</text>
</a>
</g>
</g>
<!-- DIV -->
<g id="node4" class="node">
<title>DIV</title>
<g id="a_node4"><a xlink:href="http://github.com/FStarLang/FStar/blob/master/ulib/FStar.Pervasives.fst#L36" xlink:title="FStar.Pervasives.fst:36">
<ellipse fill="none" stroke="#000000" cx="889" cy="-234" rx="27" ry="18"/>
<text text-anchor="middle" x="889" y="-230.3" font-family="Times-Roman" font-size="14.00" fill="#000000">DIV</text>
</a>
</g>
</g>
<!-- GST&#45;&gt;DIV -->
<g id="edge3" class="edge">
<title>GST&#45;&gt;DIV</title>
<g id="a_edge3"><a xlink:href="http://github.com/FStarLang/FStar/blob/master/ulib/FStar.ST.fst#L34" xlink:title="FStar.ST.fst:34">
<path fill="none" stroke="#000000" d="M1097.9851,-294.6477C1093.1421,-292.27 1087.9559,-289.9083 1083,-288 1029.2407,-267.2993 964.3139,-250.8751 924.8675,-241.7983"/>
<polygon fill="#000000" stroke="#000000" points="925.4557,-238.3429 914.9291,-239.5432 923.9066,-245.1694 925.4557,-238.3429"/>
</a>
</g>
</g>
<!-- STATE&#45;&gt;GST -->
<g id="edge1" class="edge">
<title>STATE&#45;&gt;GST</title>
<g id="a_edge1"><a xlink:href="http://github.com/FStarLang/FStar/blob/master/ulib/FStar.ST.fst#L68" xlink:title="FStar.ST.fst:68">
<path fill="none" stroke="#000000" d="M727.721,-376.8918C798.7769,-373.9197 956.6789,-363.0893 1083,-324 1084.9025,-323.4113 1086.8276,-322.7306 1088.7466,-321.9856"/>
<polygon fill="#000000" stroke="#000000" points="1090.4091,-325.0783 1098.1592,-317.8542 1087.5957,-318.6685 1090.4091,-325.0783"/>
</a>
</g>
</g>
<!-- STATE&#45;&gt;DIV -->
<g id="edge4" class="edge">
<title>STATE&#45;&gt;DIV</title>
<g id="a_edge4"><a xlink:href="http://github.com/FStarLang/FStar/blob/master/ulib/reclaimable/FStar.ST.fst#L31" xlink:title="reclaimable/FStar.ST.fst:31">
<path fill="none" stroke="#000000" d="M705.9629,-361.6633C729.7862,-337.3671 772.7367,-293.9212 781,-288 804.4526,-271.1946 833.9044,-256.8509 856.1259,-247.1795"/>
<polygon fill="#000000" stroke="#000000" points="857.6433,-250.3375 865.4732,-243.2 854.9013,-243.8969 857.6433,-250.3375"/>
</a>
</g>
</g>
<!-- READER -->
<g id="node8" class="node">
<title>READER</title>
<g id="a_node8"><a xlink:href="http://github.com/FStarLang/FStar/blob/master/ulib/FStar.Reader.fst#L82" xlink:title="FStar.Reader.fst:82">
<ellipse fill="none" stroke="#000000" cx="451" cy="-306" rx="42.7926" ry="18"/>
<text text-anchor="middle" x="451" y="-302.3" font-family="Times-Roman" font-size="14.00" fill="#000000">READER</text>
</a>
</g>
</g>
<!-- STATE&#45;&gt;READER -->
<g id="edge10" class="edge">
<title>STATE&#45;&gt;READER</title>
<g id="a_edge10"><a xlink:href="http://github.com/FStarLang/FStar/blob/master/ulib/FStar.Reader.fst#L93" xlink:title="FStar.Reader.fst:93">
<path fill="none" stroke="#000000" d="M657.0773,-369.0525C619.6013,-358.738 556.6296,-341.0126 503,-324 499.9039,-323.0178 496.713,-321.9791 493.507,-320.916"/>
<polygon fill="#000000" stroke="#000000" points="494.518,-317.5634 483.9238,-317.6865 492.2825,-324.1968 494.518,-317.5634"/>
</a>
</g>
</g>
<!-- Unsafe -->
<g id="node16" class="node">
<title>Unsafe</title>
<g id="a_node16"><a xlink:href="http://github.com/FStarLang/FStar/blob/master/ulib/FStar.HyperStack.ST.fsti#L97" xlink:title="FStar.HyperStack.ST.fsti:97">
<ellipse fill="none" stroke="#000000" stroke-dasharray="1,5" cx="1031" cy="-306" rx="42.7926" ry="18"/>
<text text-anchor="middle" x="1031" y="-302.3" font-family="Times-Roman" font-size="14.00" fill="#000000">Unsafe</text>
</a>
</g>
</g>
<!-- STATE&#45;&gt;Unsafe -->
<g id="edge15" class="edge">
<title>STATE&#45;&gt;Unsafe</title>
<path fill="none" stroke="#000000" stroke-dasharray="1,5" d="M726.4284,-372.9698C781.6097,-364.9524 889.4483,-347.7252 979,-324 982.3332,-323.1169 985.7601,-322.1251 989.1882,-321.0726"/>
<polygon fill="#000000" stroke="#000000" points="990.3287,-324.3824 998.775,-317.9863 988.1835,-317.7192 990.3287,-324.3824"/>
</g>
<!-- Stack -->
<g id="node17" class="node">
<title>Stack</title>
<g id="a_node17"><a xlink:href="http://github.com/FStarLang/FStar/blob/master/ulib/FStar.HyperStack.ST.fsti#L202" xlink:title="FStar.HyperStack.ST.fsti:202">
<ellipse fill="none" stroke="#000000" stroke-dasharray="1,5" cx="204" cy="-306" rx="37.8943" ry="18"/>
<text text-anchor="middle" x="204" y="-302.3" font-family="Times-Roman" font-size="14.00" fill="#000000">Stack</text>
</a>
</g>
</g>
<!-- STATE&#45;&gt;Stack -->
<g id="edge16" class="edge">
<title>STATE&#45;&gt;Stack</title>
<path fill="none" stroke="#000000" stroke-dasharray="1,5" d="M653.0934,-373.9659C582.2559,-366.0159 422.419,-347.0767 289,-324 275.7471,-321.7077 261.4147,-318.8286 248.3624,-316.0496"/>
<polygon fill="#000000" stroke="#000000" points="248.7281,-312.5479 238.2143,-313.8554 247.2488,-319.3898 248.7281,-312.5479"/>
</g>
<!-- Heap -->
<g id="node18" class="node">
<title>Heap</title>
<g id="a_node18"><a xlink:href="http://github.com/FStarLang/FStar/blob/master/ulib/FStar.HyperStack.ST.fsti#L213" xlink:title="FStar.HyperStack.ST.fsti:213">
<ellipse fill="none" stroke="#000000" stroke-dasharray="1,5" cx="544" cy="-306" rx="32.4942" ry="18"/>
<text text-anchor="middle" x="544" y="-302.3" font-family="Times-Roman" font-size="14.00" fill="#000000">Heap</text>
</a>
</g>
</g>
<!-- STATE&#45;&gt;Heap -->
<g id="edge17" class="edge">
<title>STATE&#45;&gt;Heap</title>
<path fill="none" stroke="#000000" stroke-dasharray="1,5" d="M663.5605,-364.9613C639.409,-353.051 603.5879,-335.3858 577.4531,-322.4974"/>
<polygon fill="#000000" stroke="#000000" points="578.8191,-319.2686 568.3023,-317.9847 575.723,-325.5467 578.8191,-319.2686"/>
</g>
<!-- ST -->
<g id="node19" class="node">
<title>ST</title>
<g id="a_node19"><a xlink:href="http://github.com/FStarLang/FStar/blob/master/ulib/FStar.HyperStack.ST.fsti#L226" xlink:title="FStar.HyperStack.ST.fsti:226">
<ellipse fill="none" stroke="#000000" stroke-dasharray="1,5" cx="325" cy="-306" rx="27" ry="18"/>
<text text-anchor="middle" x="325" y="-302.3" font-family="Times-Roman" font-size="14.00" fill="#000000">ST</text>
</a>
</g>
</g>
<!-- STATE&#45;&gt;ST -->
<g id="edge18" class="edge">
<title>STATE&#45;&gt;ST</title>
<path fill="none" stroke="#000000" stroke-dasharray="1,5" d="M654.0339,-371.983C598.9461,-362.6189 490.4427,-343.5902 399,-324 386.2735,-321.2735 372.3929,-317.9824 360.1273,-314.964"/>
<polygon fill="#000000" stroke="#000000" points="360.8141,-311.5283 350.2649,-312.5111 359.1245,-318.3213 360.8141,-311.5283"/>
</g>
<!-- StackInline -->
<g id="node21" class="node">
<title>StackInline</title>
<g id="a_node21"><a xlink:href="http://github.com/FStarLang/FStar/blob/master/ulib/FStar.HyperStack.ST.fsti#L246" xlink:title="FStar.HyperStack.ST.fsti:246">
<ellipse fill="none" stroke="#000000" stroke-dasharray="1,5" cx="664" cy="-306" rx="69.5877" ry="18"/>
<text text-anchor="middle" x="664" y="-302.3" font-family="Times-Roman" font-size="14.00" fill="#000000">StackInline</text>
</a>
</g>
</g>
<!-- STATE&#45;&gt;StackInline -->
<g id="edge20" class="edge">
<title>STATE&#45;&gt;StackInline</title>
<path fill="none" stroke="#000000" stroke-dasharray="1,5" d="M683.573,-360.2022C680.6886,-352.2146 677.2183,-342.6045 674.0059,-333.7087"/>
<polygon fill="#000000" stroke="#000000" points="677.2221,-332.3099 670.5336,-324.0931 670.6382,-334.6874 677.2221,-332.3099"/>
</g>
<!-- Inline -->
<g id="node22" class="node">
<title>Inline</title>
<g id="a_node22"><a xlink:href="http://github.com/FStarLang/FStar/blob/master/ulib/FStar.HyperStack.ST.fsti#L264" xlink:title="FStar.HyperStack.ST.fsti:264">
<ellipse fill="none" stroke="#000000" stroke-dasharray="1,5" cx="833" cy="-306" rx="42.7926" ry="18"/>
<text text-anchor="middle" x="833" y="-302.3" font-family="Times-Roman" font-size="14.00" fill="#000000">Inline</text>
</a>
</g>
</g>
<!-- STATE&#45;&gt;Inline -->
<g id="edge21" class="edge">
<title>STATE&#45;&gt;Inline</title>
<path fill="none" stroke="#000000" stroke-dasharray="1,5" d="M716.2284,-364.7941C738.6784,-353.4906 771.2439,-337.094 796.2841,-324.4863"/>
<polygon fill="#000000" stroke="#000000" points="798.118,-327.4816 805.4758,-319.8583 794.97,-321.2294 798.118,-327.4816"/>
</g>
<!-- State -->
<g id="node32" class="node">
<title>State</title>
<g id="a_node32"><a xlink:href="http://github.com/FStarLang/FStar/blob/master/ulib/FStar.ST.fst#L69" xlink:title="FStar.ST.fst:69">
<ellipse fill="none" stroke="#000000" stroke-dasharray="1,5" cx="932" cy="-306" rx="37.8943" ry="18"/>
<text text-anchor="middle" x="932" y="-302.3" font-family="Times-Roman" font-size="14.00" fill="#000000">State</text>
</a>
</g>
</g>
<!-- STATE&#45;&gt;State -->
<g id="edge31" class="edge">
<title>STATE&#45;&gt;State</title>
<path fill="none" stroke="#000000" stroke-dasharray="1,5" d="M723.7622,-369.6963C762.8765,-359.8357 829.1093,-342.3945 885,-324 887.7622,-323.0909 890.6006,-322.114 893.4487,-321.1022"/>
<polygon fill="#000000" stroke="#000000" points="894.8872,-324.3027 903.0726,-317.5759 892.4788,-317.73 894.8872,-324.3027"/>
</g>
<!-- PURE -->
<g id="node13" class="node">
<title>PURE</title>
<g id="a_node13"><a xlink:href="http://github.com/FStarLang/FStar/blob/master/ulib/prims.fst#L218" xlink:title="prims.fst:218">
<ellipse fill="#bae3ff" stroke="#000000" cx="944" cy="-162" rx="32.4942" ry="18"/>
<text text-anchor="middle" x="944" y="-158.3" font-family="Times-Roman" font-size="14.00" fill="#000000">PURE</text>
</a>
</g>
</g>
<!-- DIV&#45;&gt;PURE -->
<g id="edge11" class="edge">
<title>DIV&#45;&gt;PURE</title>
<g id="a_edge11"><a xlink:href="http://github.com/FStarLang/FStar/blob/master/ulib/FStar.Pervasives.fst#L37" xlink:title="FStar.Pervasives.fst:37">
<path fill="none" stroke="#000000" d="M896.4357,-216.5708C902.6847,-207.113 911.5516,-195.3004 920.0163,-185.0865"/>
<polygon fill="#000000" stroke="#000000" points="922.8236,-187.1889 926.6609,-177.3134 917.5027,-182.6405 922.8236,-187.1889"/>
</a>
</g>
</g>
<!-- Div -->
<g id="node24" class="node">
<title>Div</title>
<g id="a_node24"><a xlink:href="http://github.com/FStarLang/FStar/blob/master/ulib/FStar.Pervasives.fst#L38" xlink:title="FStar.Pervasives.fst:38">
<ellipse fill="none" stroke="#000000" stroke-dasharray="1,5" cx="724" cy="-90" rx="27" ry="18"/>
<text text-anchor="middle" x="724" y="-86.3" font-family="Times-Roman" font-size="14.00" fill="#000000">Div</text>
</a>
</g>
</g>
<!-- DIV&#45;&gt;Div -->
<g id="edge23" class="edge">
<title>DIV&#45;&gt;Div</title>
<path fill="none" stroke="#000000" stroke-dasharray="1,5" d="M872.5759,-219.6663C843.447,-194.2447 782.6024,-141.1439 748.504,-111.3853"/>
<polygon fill="#000000" stroke="#000000" points="750.6845,-108.6429 740.8489,-104.7045 746.0818,-113.9168 750.6845,-108.6429"/>
</g>
<!-- Dv -->
<g id="node25" class="node">
<title>Dv</title>
<g id="a_node25"><a xlink:href="http://github.com/FStarLang/FStar/blob/master/ulib/FStar.Pervasives.fst#L41" xlink:title="FStar.Pervasives.fst:41">
<ellipse fill="none" stroke="#000000" stroke-dasharray="1,5" cx="796" cy="-90" rx="27" ry="18"/>
<text text-anchor="middle" x="796" y="-86.3" font-family="Times-Roman" font-size="14.00" fill="#000000">Dv</text>
</a>
</g>
</g>
<!-- DIV&#45;&gt;Dv -->
<g id="edge24" class="edge">
<title>DIV&#45;&gt;Dv</title>
<path fill="none" stroke="#000000" stroke-dasharray="1,5" d="M878.1497,-217.1995C861.9096,-192.0535 831.1707,-144.4579 812.246,-115.1551"/>
<polygon fill="#000000" stroke="#000000" points="815.1466,-113.195 806.7812,-106.6934 809.2663,-116.9927 815.1466,-113.195"/>
</g>
<!-- STATE_h -->
<g id="node5" class="node">
<title>STATE_h</title>
<g id="a_node5"><a xlink:href="http://github.com/FStarLang/FStar/blob/master/ulib/FStar.Pervasives.fst#L99" xlink:title="FStar.Pervasives.fst:99">
<ellipse fill="none" stroke="#000000" cx="419" cy="-450" rx="48.1917" ry="18"/>
<text text-anchor="middle" x="419" y="-446.3" font-family="Times-Roman" font-size="14.00" fill="#000000">STATE_h</text>
</a>
</g>
</g>
<!-- STATE_h&#45;&gt;GST -->
<g id="edge44" class="edge">
<title>STATE_h&#45;&gt;GST</title>
<path fill="none" stroke="#f6e58d" d="M466.9166,-448.2571C552.5231,-444.3125 736.9218,-432.0389 888,-396 977.8642,-374.5634 998.2225,-360.7135 1083,-324 1084.7794,-323.2294 1086.596,-322.4144 1088.4209,-321.5736"/>
<polygon fill="#f6e58d" stroke="#f6e58d" points="1089.9684,-324.7133 1097.4801,-317.2416 1086.9485,-318.3982 1089.9684,-324.7133"/>
</g>
<!-- STATE_h&#45;&gt;STATE -->
<g id="edge45" class="edge">
<title>STATE_h&#45;&gt;STATE</title>
<path fill="none" stroke="#f6e58d" d="M458.4057,-439.5306C508.6386,-426.1846 595.1733,-403.1938 647.0486,-389.4114"/>
<polygon fill="#f6e58d" stroke="#f6e58d" points="648.1746,-392.7338 656.9406,-386.7833 646.3771,-385.9685 648.1746,-392.7338"/>
</g>
<!-- STATE2 -->
<g id="node10" class="node">
<title>STATE2</title>
<g id="a_node10"><a xlink:href="http://github.com/FStarLang/FStar/blob/master/ulib/FStar.Relational.Comp.fst#L24" xlink:title="FStar.Relational.Comp.fst:24">
<ellipse fill="none" stroke="#000000" cx="171" cy="-378" rx="42.7926" ry="18"/>
<text text-anchor="middle" x="171" y="-374.3" font-family="Times-Roman" font-size="14.00" fill="#000000">STATE2</text>
</a>
</g>
</g>
<!-- STATE_h&#45;&gt;STATE2 -->
<g id="edge48" class="edge">
<title>STATE_h&#45;&gt;STATE2</title>
<path fill="none" stroke="#f6e58d" d="M380.1237,-439.3809C341.4585,-428.732 280.4917,-411.7045 228,-396 223.7466,-394.7275 219.323,-393.3776 214.9048,-392.0117"/>
<polygon fill="#f6e58d" stroke="#f6e58d" points="215.8981,-388.6553 205.3096,-389.0199 213.8144,-395.338 215.8981,-388.6553"/>
</g>
<!-- STATE_h&#45;&gt;Unsafe -->
<g id="edge52" class="edge">
<title>STATE_h&#45;&gt;Unsafe</title>
<path fill="none" stroke="#f6e58d" d="M467.124,-448.0922C544.5042,-444.0422 700.7951,-431.7932 828,-396 889.4973,-378.6958 956.4399,-346.0819 996.009,-325.2299"/>
<polygon fill="#f6e58d" stroke="#f6e58d" points="997.7972,-328.2431 1004.981,-320.4556 994.5088,-322.0636 997.7972,-328.2431"/>
</g>
<!-- STATE_h&#45;&gt;Stack -->
<g id="edge53" class="edge">
<title>STATE_h&#45;&gt;Stack</title>
<path fill="none" stroke="#f6e58d" d="M375.2628,-442.1955C342.591,-434.6621 298.2067,-420.6584 266,-396 244.1508,-379.2716 227.1588,-352.6115 216.5331,-332.642"/>
<polygon fill="#f6e58d" stroke="#f6e58d" points="219.6407,-331.0316 211.9697,-323.7236 213.4091,-334.2203 219.6407,-331.0316"/>
</g>
<!-- STATE_h&#45;&gt;Heap -->
<g id="edge54" class="edge">
<title>STATE_h&#45;&gt;Heap</title>
<path fill="none" stroke="#f6e58d" d="M444.7246,-434.7419C459.7387,-424.9724 478.3501,-411.2861 492,-396 508.8882,-377.0874 522.9027,-351.8234 532.1105,-332.8773"/>
<polygon fill="#f6e58d" stroke="#f6e58d" points="535.3796,-334.1506 536.4772,-323.6128 529.0477,-331.1661 535.3796,-334.1506"/>
</g>
<!-- STATE_h&#45;&gt;ST -->
<g id="edge55" class="edge">
<title>STATE_h&#45;&gt;ST</title>
<path fill="none" stroke="#f6e58d" d="M399.6388,-433.3955C388.7684,-423.3606 375.5184,-409.8606 366,-396 352.6323,-376.534 341.7943,-352.0079 334.6262,-333.4768"/>
<polygon fill="#f6e58d" stroke="#f6e58d" points="337.813,-332.0065 331.0287,-323.8688 331.2575,-334.4611 337.813,-332.0065"/>
</g>
<!-- St -->
<g id="node20" class="node">
<title>St</title>
<g id="a_node20"><a xlink:href="http://github.com/FStarLang/FStar/blob/master/ulib/FStar.HyperStack.ST.fsti#L229" xlink:title="FStar.HyperStack.ST.fsti:229">
<ellipse fill="none" stroke="#000000" stroke-dasharray="1,5" cx="297" cy="-234" rx="27" ry="18"/>
<text text-anchor="middle" x="297" y="-230.3" font-family="Times-Roman" font-size="14.00" fill="#000000">St</text>
</a>
</g>
</g>
<!-- STATE_h&#45;&gt;St -->
<g id="edge56" class="edge">
<title>STATE_h&#45;&gt;St</title>
<path fill="none" stroke="#f6e58d" d="M392.003,-434.9464C359.2104,-414.7634 306.1453,-375.4358 289,-324 282.2823,-303.847 284.9105,-279.8307 288.8766,-261.6778"/>
<polygon fill="#f6e58d" stroke="#f6e58d" points="292.3309,-262.2858 291.3058,-251.7407 285.5312,-260.6235 292.3309,-262.2858"/>
</g>
<!-- STATE_h&#45;&gt;StackInline -->
<g id="edge57" class="edge">
<title>STATE_h&#45;&gt;StackInline</title>
<path fill="none" stroke="#f6e58d" d="M447.2687,-435.3184C467.4348,-424.7037 495.1016,-409.8525 519,-396 557.3303,-373.7823 600.3538,-346.8133 629.5103,-328.2239"/>
<polygon fill="#f6e58d" stroke="#f6e58d" points="631.552,-331.0728 638.0931,-322.7383 627.7822,-325.1746 631.552,-331.0728"/>
</g>
<!-- STATE_h&#45;&gt;Inline -->
<g id="edge58" class="edge">
<title>STATE_h&#45;&gt;Inline</title>
<path fill="none" stroke="#f6e58d" d="M465.6305,-445.4188C542.0379,-437.361 690.0996,-419.2764 737,-396 767.8925,-380.6682 795.7336,-352.1223 813.3796,-331.2781"/>
<polygon fill="#f6e58d" stroke="#f6e58d" points="816.1873,-333.3746 819.8511,-323.4334 810.7876,-328.92 816.1873,-333.3746"/>
</g>
<!-- STL -->
<g id="node23" class="node">
<title>STL</title>
<g id="a_node23"><a xlink:href="http://github.com/FStarLang/FStar/blob/master/ulib/FStar.HyperStack.ST.fsti#L272" xlink:title="FStar.HyperStack.ST.fsti:272">
<ellipse fill="none" stroke="#000000" stroke-dasharray="1,5" cx="118" cy="-234" rx="27" ry="18"/>
<text text-anchor="middle" x="118" y="-230.3" font-family="Times-Roman" font-size="14.00" fill="#000000">STL</text>
</a>
</g>
</g>
<!-- STATE_h&#45;&gt;STL -->
<g id="edge59" class="edge">
<title>STATE_h&#45;&gt;STL</title>
<path fill="none" stroke="#f6e58d" d="M370.774,-448.529C294.3085,-445.0709 150.642,-433.6096 119,-396 87.3582,-358.3907 98.4489,-296.6404 108.6763,-261.2319"/>
<polygon fill="#f6e58d" stroke="#f6e58d" points="112.0551,-262.1513 111.6378,-251.5647 105.3621,-260.1008 112.0551,-262.1513"/>
</g>
<!-- ST2 -->
<g id="node30" class="node">
<title>ST2</title>
<g id="a_node30"><a xlink:href="http://github.com/FStarLang/FStar/blob/master/ulib/FStar.Relational.Comp.fst#L29" xlink:title="FStar.Relational.Comp.fst:29">
<ellipse fill="none" stroke="#000000" stroke-dasharray="1,5" cx="45" cy="-306" rx="27" ry="18"/>
<text text-anchor="middle" x="45" y="-302.3" font-family="Times-Roman" font-size="14.00" fill="#000000">ST2</text>
</a>
</g>
</g>
<!-- STATE_h&#45;&gt;ST2 -->
<g id="edge64" class="edge">
<title>STATE_h&#45;&gt;ST2</title>
<path fill="none" stroke="#f6e58d" d="M371.229,-447.7222C290.1072,-442.9773 129.9336,-429.5407 86,-396 66.2693,-380.9368 55.7479,-354.1832 50.3267,-333.7474"/>
<polygon fill="#f6e58d" stroke="#f6e58d" points="53.7293,-332.927 47.996,-324.0175 46.9219,-334.5577 53.7293,-332.927"/>
</g>
<!-- St2 -->
<g id="node31" class="node">
<title>St2</title>
<g id="a_node31"><a xlink:href="http://github.com/FStarLang/FStar/blob/master/ulib/FStar.Relational.Comp.fst#L32" xlink:title="FStar.Relational.Comp.fst:32">
<ellipse fill="none" stroke="#000000" stroke-dasharray="1,5" cx="27" cy="-234" rx="27" ry="18"/>
<text text-anchor="middle" x="27" y="-230.3" font-family="Times-Roman" font-size="14.00" fill="#000000">St2</text>
</a>
</g>
</g>
<!-- STATE_h&#45;&gt;St2 -->
<g id="edge65" class="edge">
<title>STATE_h&#45;&gt;St2</title>
<path fill="none" stroke="#f6e58d" d="M371.2624,-447.7138C285.0055,-442.808 107.359,-428.9249 56,-396 23.8287,-375.3759 19.8968,-360.6279 9,-324 2.751,-302.995 8.4114,-278.5835 14.9886,-260.4881"/>
<polygon fill="#f6e58d" stroke="#f6e58d" points="18.2597,-261.7336 18.6671,-251.1466 11.7465,-259.1688 18.2597,-261.7336"/>
</g>
<!-- STATE_h&#45;&gt;State -->
<g id="edge66" class="edge">
<title>STATE_h&#45;&gt;State</title>
<path fill="none" stroke="#f6e58d" d="M467.135,-448.3741C537.0126,-444.7654 669.7998,-433.1731 776,-396 823.5426,-379.3587 873.0258,-348.0215 903.1801,-327.0742"/>
<polygon fill="#f6e58d" stroke="#f6e58d" points="905.363,-329.8178 911.5244,-321.1988 901.3329,-324.0943 905.363,-329.8178"/>
</g>
<!-- EXN&#45;&gt;DIV -->
<g id="edge5" class="edge">
<title>EXN&#45;&gt;DIV</title>
<g id="a_edge5"><a xlink:href="http://github.com/FStarLang/FStar/blob/master/ulib/FStar.Pervasives.fst#L172" xlink:title="FStar.Pervasives.fst:172">
<path fill="none" stroke="#000000" d="M1175.5717,-359.7411C1176.2484,-339.3607 1173.9309,-306.7843 1155,-288 1123.1557,-256.4021 991.5376,-241.9352 926.1748,-236.5958"/>
<polygon fill="#000000" stroke="#000000" points="926.147,-233.0829 915.9032,-235.7875 925.5978,-240.0613 926.147,-233.0829"/>
</a>
</g>
</g>
<!-- Exn -->
<g id="node27" class="node">
<title>Exn</title>
<g id="a_node27"><a xlink:href="http://github.com/FStarLang/FStar/blob/master/ulib/FStar.Pervasives.fst#L168" xlink:title="FStar.Pervasives.fst:168">
<ellipse fill="none" stroke="#000000" stroke-dasharray="1,5" cx="1303" cy="-306" rx="27" ry="18"/>
<text text-anchor="middle" x="1303" y="-302.3" font-family="Times-Roman" font-size="14.00" fill="#000000">Exn</text>
</a>
</g>
</g>
<!-- EXN&#45;&gt;Exn -->
<g id="edge26" class="edge">
<title>EXN&#45;&gt;Exn</title>
<path fill="none" stroke="#000000" stroke-dasharray="1,5" d="M1194.7261,-366.432C1215.8521,-354.6407 1248.8408,-336.2284 1272.8562,-322.8244"/>
<polygon fill="#000000" stroke="#000000" points="1274.8706,-325.7084 1281.8968,-317.7785 1271.459,-319.596 1274.8706,-325.7084"/>
</g>
<!-- ALL_h -->
<g id="node7" class="node">
<title>ALL_h</title>
<g id="a_node7"><a xlink:href="http://github.com/FStarLang/FStar/blob/master/ulib/FStar.Pervasives.fst#L222" xlink:title="FStar.Pervasives.fst:222">
<ellipse fill="none" stroke="#000000" cx="1254" cy="-522" rx="37.8943" ry="18"/>
<text text-anchor="middle" x="1254" y="-518.3" font-family="Times-Roman" font-size="14.00" fill="#000000">ALL_h</text>
</a>
</g>
</g>
<!-- ALL_h&#45;&gt;ALL -->
<g id="edge43" class="edge">
<title>ALL_h&#45;&gt;ALL</title>
<path fill="none" stroke="#f6e58d" d="M1240.9658,-504.937C1234.0169,-495.8403 1225.3454,-484.4886 1217.6917,-474.4691"/>
<polygon fill="#f6e58d" stroke="#f6e58d" points="1220.4139,-472.267 1211.5621,-466.4449 1214.8512,-476.5163 1220.4139,-472.267"/>
</g>
<!-- ALL_h&#45;&gt;All -->
<g id="edge51" class="edge">
<title>ALL_h&#45;&gt;All</title>
<path fill="none" stroke="#f6e58d" d="M1261.8477,-504.3428C1272.9434,-479.3773 1293.3016,-433.5715 1306.2174,-404.5109"/>
<polygon fill="#f6e58d" stroke="#f6e58d" points="1309.425,-405.9115 1310.2881,-395.3519 1303.0283,-403.0685 1309.425,-405.9115"/>
</g>
<!-- ALL_h&#45;&gt;ML -->
<g id="edge63" class="edge">
<title>ALL_h&#45;&gt;ML</title>
<path fill="none" stroke="#f6e58d" d="M1252.9868,-503.7623C1251.6223,-479.201 1249.1804,-435.2474 1247.5752,-406.3541"/>
<polygon fill="#f6e58d" stroke="#f6e58d" points="1251.0544,-405.88 1247.005,-396.0896 1244.0652,-406.2684 1251.0544,-405.88"/>
</g>
<!-- READER&#45;&gt;DIV -->
<g id="edge6" class="edge">
<title>READER&#45;&gt;DIV</title>
<g id="a_edge6"><a xlink:href="http://github.com/FStarLang/FStar/blob/master/ulib/FStar.Reader.fst#L95" xlink:title="FStar.Reader.fst:95">
<path fill="none" stroke="#000000" d="M482.8874,-293.8716C489.4688,-291.6779 496.4053,-289.5867 503,-288 629.0918,-257.6614 782.739,-242.4825 852.0049,-236.7692"/>
<polygon fill="#000000" stroke="#000000" points="852.3039,-240.2565 861.9899,-235.9634 851.7407,-233.2792 852.3039,-240.2565"/>
</a>
</g>
</g>
<!-- STRead -->
<g id="node14" class="node">
<title>STRead</title>
<g id="a_node14"><a xlink:href="http://github.com/FStarLang/FStar/blob/master/ulib/FStar.Reader.fst#L83" xlink:title="FStar.Reader.fst:83">
<ellipse fill="none" stroke="#000000" stroke-dasharray="1,5" cx="415" cy="-234" rx="42.7926" ry="18"/>
<text text-anchor="middle" x="415" y="-230.3" font-family="Times-Roman" font-size="14.00" fill="#000000">STRead</text>
</a>
</g>
</g>
<!-- READER&#45;&gt;STRead -->
<g id="edge13" class="edge">
<title>READER&#45;&gt;STRead</title>
<path fill="none" stroke="#000000" stroke-dasharray="1,5" d="M442.1011,-288.2022C437.9905,-279.981 433.0205,-270.041 428.4651,-260.9301"/>
<polygon fill="#000000" stroke="#000000" points="431.524,-259.2216 423.9213,-251.8425 425.263,-262.3521 431.524,-259.2216"/>
</g>
<!-- READER_h -->
<g id="node9" class="node">
<title>READER_h</title>
<g id="a_node9"><a xlink:href="http://github.com/FStarLang/FStar/blob/master/ulib/FStar.Reader.fst#L68" xlink:title="FStar.Reader.fst:68">
<ellipse fill="none" stroke="#000000" cx="429" cy="-378" rx="53.8905" ry="18"/>
<text text-anchor="middle" x="429" y="-374.3" font-family="Times-Roman" font-size="14.00" fill="#000000">READER_h</text>
</a>
</g>
</g>
<!-- READER_h&#45;&gt;READER -->
<g id="edge47" class="edge">
<title>READER_h&#45;&gt;READER</title>
<path fill="none" stroke="#f6e58d" d="M434.5515,-359.8314C436.9669,-351.9266 439.8511,-342.4872 442.525,-333.7365"/>
<polygon fill="#f6e58d" stroke="#f6e58d" points="445.9514,-334.4997 445.5265,-323.9134 439.257,-332.4541 445.9514,-334.4997"/>
</g>
<!-- READER_h&#45;&gt;STRead -->
<g id="edge50" class="edge">
<title>READER_h&#45;&gt;STRead</title>
<path fill="none" stroke="#f6e58d" d="M416.2707,-360.487C409.71,-350.3668 402.3896,-337.081 399,-324 393.6173,-303.2275 398.3843,-279.2904 404.0809,-261.3267"/>
<polygon fill="#f6e58d" stroke="#f6e58d" points="407.4269,-262.3596 407.3774,-251.7649 400.8092,-260.0781 407.4269,-262.3596"/>
</g>
<!-- STATE2&#45;&gt;DIV -->
<g id="edge7" class="edge">
<title>STATE2&#45;&gt;DIV</title>
<g id="a_edge7"><a xlink:href="http://github.com/FStarLang/FStar/blob/master/ulib/FStar.Relational.Comp.fst#L33" xlink:title="FStar.Relational.Comp.fst:33">
<path fill="none" stroke="#000000" d="M160.765,-360.3068C150.5989,-340.1409 138.9194,-307.4635 157,-288 180.876,-262.2978 705.4441,-240.8522 851.5354,-235.3622"/>
<polygon fill="#000000" stroke="#000000" points="851.9158,-238.8506 861.7784,-234.9802 851.6549,-231.8554 851.9158,-238.8506"/>
</a>
</g>
</g>
<!-- STATE2&#45;&gt;ST2 -->
<g id="edge29" class="edge">
<title>STATE2&#45;&gt;ST2</title>
<path fill="none" stroke="#000000" stroke-dasharray="1,5" d="M145.502,-363.4297C124.9899,-351.7085 96.1385,-335.222 74.6067,-322.9181"/>
<polygon fill="#000000" stroke="#000000" points="76.2915,-319.8498 65.8726,-317.9272 72.8185,-325.9275 76.2915,-319.8498"/>
</g>
<!-- TAC -->
<g id="node11" class="node">
<title>TAC</title>
<g id="a_node11"><a xlink:href="http://github.com/FStarLang/FStar/blob/master/ulib/FStar.Tactics.Effect.fst#L83" xlink:title="FStar.Tactics.Effect.fst:83">
<ellipse fill="none" stroke="#000000" cx="1229" cy="-306" rx="27" ry="18"/>
<text text-anchor="middle" x="1229" y="-302.3" font-family="Times-Roman" font-size="14.00" fill="#000000">TAC</text>
</a>
</g>
</g>
<!-- TAC&#45;&gt;DIV -->
<g id="edge8" class="edge">
<title>TAC&#45;&gt;DIV</title>
<g id="a_edge8"><a xlink:href="http://github.com/FStarLang/FStar/blob/master/ulib/FStar.Tactics.Effect.fst#L109" xlink:title="FStar.Tactics.Effect.fst:109">
<path fill="none" stroke="#000000" d="M1207.2316,-295.3107C1201.1196,-292.6229 1194.3944,-289.9513 1188,-288 1095.8569,-259.8817 983.0084,-244.3997 925.8938,-237.8351"/>
<polygon fill="#000000" stroke="#000000" points="926.2236,-234.3502 915.8954,-236.7121 925.4422,-241.3065 926.2236,-234.3502"/>
</a>
</g>
</g>
<!-- TacH -->
<g id="node33" class="node">
<title>TacH</title>
<g id="a_node33"><a xlink:href="http://github.com/FStarLang/FStar/blob/master/ulib/FStar.Tactics.Effect.fst#L93" xlink:title="FStar.Tactics.Effect.fst:93">
<ellipse fill="none" stroke="#000000" stroke-dasharray="1,5" cx="1227" cy="-234" rx="32.4942" ry="18"/>
<text text-anchor="middle" x="1227" y="-230.3" font-family="Times-Roman" font-size="14.00" fill="#000000">TacH</text>
</a>
</g>
</g>
<!-- TAC&#45;&gt;TacH -->
<g id="edge32" class="edge">
<title>TAC&#45;&gt;TacH</title>
<path fill="none" stroke="#000000" stroke-dasharray="1,5" d="M1228.4953,-287.8314C1228.2814,-280.131 1228.0271,-270.9743 1227.7894,-262.4166"/>
<polygon fill="#000000" stroke="#000000" points="1231.2879,-262.3122 1227.5115,-252.4133 1224.2906,-262.5066 1231.2879,-262.3122"/>
</g>
<!-- GHOST -->
<g id="node12" class="node">
<title>GHOST</title>
<g id="a_node12"><a xlink:href="http://github.com/FStarLang/FStar/blob/master/ulib/prims.fst#L243" xlink:title="prims.fst:243">
<ellipse fill="#bae3ff" stroke="#000000" cx="1203" cy="-90" rx="37.8943" ry="18"/>
<text text-anchor="middle" x="1203" y="-86.3" font-family="Times-Roman" font-size="14.00" fill="#000000">GHOST</text>
</a>
</g>
</g>
<!-- GHOST&#45;&gt;PURE -->
<g id="edge12" class="edge">
<title>GHOST&#45;&gt;PURE</title>
<g id="a_edge12"><a xlink:href="http://github.com/FStarLang/FStar/blob/master/ulib/prims.fst#L250" xlink:title="prims.fst:250">
<path fill="none" stroke="#000000" d="M1176.21,-102.7632C1170.872,-104.5905 1165.3028,-106.3932 1160,-108 1099.7816,-126.2466 1028.6082,-143.9925 984.7447,-153.909"/>
<polygon fill="#000000" stroke="#000000" points="983.7402,-150.547 974.7415,-156.1393 985.2635,-157.3792 983.7402,-150.547"/>
</a>
</g>
</g>
<!-- GTot -->
<g id="node40" class="node">
<title>GTot</title>
<g id="a_node40"><a xlink:href="http://github.com/FStarLang/FStar/blob/master/ulib/prims.fst#L254" xlink:title="prims.fst:254">
<ellipse fill="#bae3ff" stroke="#000000" stroke-dasharray="1,5" cx="1148" cy="-18" rx="32.4942" ry="18"/>
<text text-anchor="middle" x="1148" y="-14.3" font-family="Times-Roman" font-size="14.00" fill="#000000">GTot</text>
</a>
</g>
</g>
<!-- GHOST&#45;&gt;GTot -->
<g id="edge39" class="edge">
<title>GHOST&#45;&gt;GTot</title>
<path fill="none" stroke="#000000" stroke-dasharray="1,5" d="M1189.9658,-72.937C1183.1162,-63.9703 1174.5928,-52.8124 1167.0203,-42.8993"/>
<polygon fill="#000000" stroke="#000000" points="1169.7925,-40.7626 1160.9407,-34.9405 1164.2298,-45.0119 1169.7925,-40.7626"/>
</g>
<!-- Ghost -->
<g id="node41" class="node">
<title>Ghost</title>
<g id="a_node41"><a xlink:href="http://github.com/FStarLang/FStar/blob/master/ulib/prims.fst#L255" xlink:title="prims.fst:255">
<ellipse fill="#bae3ff" stroke="#000000" stroke-dasharray="1,5" cx="1258" cy="-18" rx="37.8943" ry="18"/>
<text text-anchor="middle" x="1258" y="-14.3" font-family="Times-Roman" font-size="14.00" fill="#000000">Ghost</text>
</a>
</g>
</g>
<!-- GHOST&#45;&gt;Ghost -->
<g id="edge40" class="edge">
<title>GHOST&#45;&gt;Ghost</title>
<path fill="none" stroke="#000000" stroke-dasharray="1,5" d="M1216.0342,-72.937C1222.8838,-63.9703 1231.4072,-52.8124 1238.9797,-42.8993"/>
<polygon fill="#000000" stroke="#000000" points="1241.7702,-45.0119 1245.0593,-34.9405 1236.2075,-40.7626 1241.7702,-45.0119"/>
</g>
<!-- PURE&#45;&gt;DIV -->
<g id="edge46" class="edge">
<title>PURE&#45;&gt;DIV</title>
<path fill="none" stroke="#f6e58d" d="M936.4502,-179.6017C930.0633,-189.2484 920.9881,-201.3056 912.4005,-211.6154"/>
<polygon fill="#f6e58d" stroke="#f6e58d" points="909.5466,-209.5661 905.6787,-219.4297 914.8534,-214.131 909.5466,-209.5661"/>
</g>
<!-- PURE&#45;&gt;GHOST -->
<g id="edge49" class="edge">
<title>PURE&#45;&gt;GHOST</title>
<path fill="none" stroke="#f6e58d" d="M972.939,-153.6584C1011.7989,-143.6954 1082.2856,-126.0939 1142,-108 1147.94,-106.2001 1154.2142,-104.1545 1160.4174,-102.1038"/>
<polygon fill="#f6e58d" stroke="#f6e58d" points="1161.6577,-105.38 1170.0488,-98.9116 1159.4555,-98.7355 1161.6577,-105.38"/>
</g>
<!-- PURE&#45;&gt;Div -->
<g id="edge60" class="edge">
<title>PURE&#45;&gt;Div</title>
<path fill="none" stroke="#f6e58d" d="M913.8144,-154.9025C876.905,-145.8249 812.8271,-128.767 760,-108 758.1466,-107.2714 756.2596,-106.4819 754.3696,-105.6542"/>
<polygon fill="#f6e58d" stroke="#f6e58d" points="755.5771,-102.3554 745.0349,-101.301 752.6186,-108.6995 755.5771,-102.3554"/>
</g>
<!-- PURE&#45;&gt;Dv -->
<g id="edge61" class="edge">
<title>PURE&#45;&gt;Dv</title>
<path fill="none" stroke="#f6e58d" d="M919.5608,-150.1107C894.2965,-137.8199 854.7683,-118.59 827.2477,-105.2016"/>
<polygon fill="#f6e58d" stroke="#f6e58d" points="828.5807,-101.9579 818.0572,-100.7305 825.5184,-108.2526 828.5807,-101.9579"/>
</g>
<!-- EXT -->
<g id="node26" class="node">
<title>EXT</title>
<g id="a_node26"><a xlink:href="http://github.com/FStarLang/FStar/blob/master/ulib/FStar.Pervasives.fst#L47" xlink:title="FStar.Pervasives.fst:47">
<ellipse fill="none" stroke="#000000" stroke-dasharray="1,5" cx="815" cy="-18" rx="27" ry="18"/>
<text text-anchor="middle" x="815" y="-14.3" font-family="Times-Roman" font-size="14.00" fill="#000000">EXT</text>
</a>
</g>
</g>
<!-- PURE&#45;&gt;EXT -->
<g id="edge62" class="edge">
<title>PURE&#45;&gt;EXT</title>
<path fill="none" stroke="#f6e58d" d="M921.4809,-148.8724C905.8039,-138.99 885.0869,-124.3753 870,-108 852.3801,-88.8755 837.3842,-63.2743 827.523,-44.2668"/>
<polygon fill="#f6e58d" stroke="#f6e58d" points="830.6075,-42.6103 822.9766,-35.2605 824.3586,-45.7648 830.6075,-42.6103"/>
</g>
<!-- Pure -->
<g id="node37" class="node">
<title>Pure</title>
<g id="a_node37"><a xlink:href="http://github.com/FStarLang/FStar/blob/master/ulib/prims.fst#L236" xlink:title="prims.fst:236">
<ellipse fill="#bae3ff" stroke="#000000" stroke-dasharray="1,5" cx="983" cy="-90" rx="32.4942" ry="18"/>
<text text-anchor="middle" x="983" y="-86.3" font-family="Times-Roman" font-size="14.00" fill="#000000">Pure</text>
</a>
</g>
</g>
<!-- PURE&#45;&gt;Pure -->
<g id="edge36" class="edge">
<title>PURE&#45;&gt;Pure</title>
<path fill="none" stroke="#000000" stroke-dasharray="1,5" d="M953.4408,-144.5708C958.0396,-136.0807 963.6664,-125.6929 968.7718,-116.2674"/>
<polygon fill="#000000" stroke="#000000" points="971.9608,-117.7286 973.6461,-107.2687 965.8057,-114.3946 971.9608,-117.7286"/>
</g>
<!-- Admit -->
<g id="node38" class="node">
<title>Admit</title>
<g id="a_node38"><a xlink:href="http://github.com/FStarLang/FStar/blob/master/ulib/prims.fst#L238" xlink:title="prims.fst:238">
<ellipse fill="#bae3ff" stroke="#000000" stroke-dasharray="1,5" cx="1071" cy="-90" rx="37.8943" ry="18"/>
<text text-anchor="middle" x="1071" y="-86.3" font-family="Times-Roman" font-size="14.00" fill="#000000">Admit</text>
</a>
</g>
</g>
<!-- PURE&#45;&gt;Admit -->
<g id="edge37" class="edge">
<title>PURE&#45;&gt;Admit</title>
<path fill="none" stroke="#000000" stroke-dasharray="1,5" d="M966.9987,-148.9613C986.7256,-137.7776 1015.4027,-121.5197 1037.6499,-108.9071"/>
<polygon fill="#000000" stroke="#000000" points="1039.466,-111.901 1046.439,-103.9243 1036.0136,-105.8115 1039.466,-111.901"/>
</g>
<!-- Tot -->
<g id="node39" class="node">
<title>Tot</title>
<g id="a_node39"><a xlink:href="http://github.com/FStarLang/FStar/blob/master/ulib/prims.fst#L242" xlink:title="prims.fst:242">
<ellipse fill="#bae3ff" stroke="#000000" stroke-dasharray="1,5" cx="906" cy="-90" rx="27" ry="18"/>
<text text-anchor="middle" x="906" y="-86.3" font-family="Times-Roman" font-size="14.00" fill="#000000">Tot</text>
</a>
</g>
</g>
<!-- PURE&#45;&gt;Tot -->
<g id="edge38" class="edge">
<title>PURE&#45;&gt;Tot</title>
<path fill="none" stroke="#000000" stroke-dasharray="1,5" d="M934.8013,-144.5708C930.3203,-136.0807 924.8379,-125.6929 919.8634,-116.2674"/>
<polygon fill="#000000" stroke="#000000" points="922.877,-114.4789 915.114,-107.2687 916.6863,-117.7462 922.877,-114.4789"/>
</g>
<!-- PURE&#45;&gt;GTot -->
<g id="edge67" class="edge">
<title>PURE&#45;&gt;GTot</title>
<path fill="none" stroke="#f6e58d" d="M974.7871,-155.9684C1019.0359,-146.7299 1097.5495,-128.0289 1118,-108 1134.657,-91.6864 1142.0656,-65.8953 1145.3607,-46.0963"/>
<polygon fill="#f6e58d" stroke="#f6e58d" points="1148.8409,-46.4819 1146.7685,-36.0917 1141.9092,-45.5064 1148.8409,-46.4819"/>
</g>
<!-- PURE&#45;&gt;Ghost -->
<g id="edge68" class="edge">
<title>PURE&#45;&gt;Ghost</title>
<path fill="none" stroke="#f6e58d" d="M976.0882,-158.5471C1050.8171,-150.1991 1231.537,-128.1236 1250,-108 1265.0122,-91.6376 1265.8682,-65.8517 1263.6334,-46.067"/>
<polygon fill="#f6e58d" stroke="#f6e58d" points="1267.0835,-45.4695 1262.1932,-36.0708 1260.1551,-46.4677 1267.0835,-45.4695"/>
</g>
<!-- Stack&#45;&gt;STL -->
<g id="edge22" class="edge">
<title>Stack&#45;&gt;STL</title>
<path fill="none" stroke="#000000" stroke-dasharray="1,5" d="M184.9138,-290.0209C172.5379,-279.6597 156.2869,-266.0542 142.8994,-254.846"/>
<polygon fill="#000000" stroke="#000000" points="144.9084,-251.9633 134.994,-248.2276 140.4149,-257.3306 144.9084,-251.9633"/>
</g>
<!-- ST&#45;&gt;St -->
<g id="edge19" class="edge">
<title>ST&#45;&gt;St</title>
<path fill="none" stroke="#000000" stroke-dasharray="1,5" d="M318.222,-288.5708C315.0128,-280.3187 311.1065,-270.2738 307.5242,-261.0623"/>
<polygon fill="#000000" stroke="#000000" points="310.6992,-259.5697 303.8126,-251.5182 304.1752,-262.1069 310.6992,-259.5697"/>
</g>
<!-- Dv&#45;&gt;EXT -->
<g id="edge25" class="edge">
<title>Dv&#45;&gt;EXT</title>
<path fill="none" stroke="#000000" stroke-dasharray="1,5" d="M800.6966,-72.2022C802.7976,-64.2406 805.324,-54.6671 807.665,-45.7957"/>
<polygon fill="#000000" stroke="#000000" points="811.1241,-46.4046 810.2916,-35.8425 804.3558,-44.6185 811.1241,-46.4046"/>
</g>
<!-- Ex -->
<g id="node28" class="node">
<title>Ex</title>
<g id="a_node28"><a xlink:href="http://github.com/FStarLang/FStar/blob/master/ulib/FStar.Pervasives.fst#L173" xlink:title="FStar.Pervasives.fst:173">
<ellipse fill="none" stroke="#000000" stroke-dasharray="1,5" cx="1304" cy="-234" rx="27" ry="18"/>
<text text-anchor="middle" x="1304" y="-230.3" font-family="Times-Roman" font-size="14.00" fill="#000000">Ex</text>
</a>
</g>
</g>
<!-- Exn&#45;&gt;Ex -->
<g id="edge27" class="edge">
<title>Exn&#45;&gt;Ex</title>
<path fill="none" stroke="#000000" stroke-dasharray="1,5" d="M1303.2523,-287.8314C1303.3593,-280.131 1303.4865,-270.9743 1303.6053,-262.4166"/>
<polygon fill="#000000" stroke="#000000" points="1307.1049,-262.4609 1303.7443,-252.4133 1300.1056,-262.3637 1307.1049,-262.4609"/>
</g>
<!-- ST2&#45;&gt;St2 -->
<g id="edge30" class="edge">
<title>ST2&#45;&gt;St2</title>
<path fill="none" stroke="#000000" stroke-dasharray="1,5" d="M40.5506,-288.2022C38.5602,-280.2406 36.1668,-270.6671 33.9489,-261.7957"/>
<polygon fill="#000000" stroke="#000000" points="37.2816,-260.6951 31.4606,-251.8425 30.4906,-262.3929 37.2816,-260.6951"/>
</g>
<!-- Tac -->
<g id="node34" class="node">
<title>Tac</title>
<g id="a_node34"><a xlink:href="http://github.com/FStarLang/FStar/blob/master/ulib/FStar.Tactics.Effect.fst#L97" xlink:title="FStar.Tactics.Effect.fst:97">
<ellipse fill="none" stroke="#000000" stroke-dasharray="1,5" cx="1150" cy="-162" rx="27" ry="18"/>
<text text-anchor="middle" x="1150" y="-158.3" font-family="Times-Roman" font-size="14.00" fill="#000000">Tac</text>
</a>
</g>
</g>
<!-- TacH&#45;&gt;Tac -->
<g id="edge33" class="edge">
<title>TacH&#45;&gt;Tac</title>
<path fill="none" stroke="#000000" stroke-dasharray="1,5" d="M1210.2921,-218.3771C1199.4797,-208.2667 1185.2481,-194.9592 1173.3269,-183.8122"/>
<polygon fill="#000000" stroke="#000000" points="1175.5806,-181.1278 1165.8859,-176.8543 1170.7996,-186.2408 1175.5806,-181.1278"/>
</g>
<!-- TacS -->
<g id="node35" class="node">
<title>TacS</title>
<g id="a_node35"><a xlink:href="http://github.com/FStarLang/FStar/blob/master/ulib/FStar.Tactics.Effect.fst#L100" xlink:title="FStar.Tactics.Effect.fst:100">
<ellipse fill="none" stroke="#000000" stroke-dasharray="1,5" cx="1227" cy="-162" rx="32.4942" ry="18"/>
<text text-anchor="middle" x="1227" y="-158.3" font-family="Times-Roman" font-size="14.00" fill="#000000">TacS</text>
</a>
</g>
</g>
<!-- TacH&#45;&gt;TacS -->
<g id="edge34" class="edge">
<title>TacH&#45;&gt;TacS</title>
<path fill="none" stroke="#000000" stroke-dasharray="1,5" d="M1227,-215.8314C1227,-208.131 1227,-198.9743 1227,-190.4166"/>
<polygon fill="#000000" stroke="#000000" points="1230.5001,-190.4132 1227,-180.4133 1223.5001,-190.4133 1230.5001,-190.4132"/>
</g>
<!-- TacF -->
<g id="node36" class="node">
<title>TacF</title>
<g id="a_node36"><a xlink:href="http://github.com/FStarLang/FStar/blob/master/ulib/FStar.Tactics.Effect.fst#L103" xlink:title="FStar.Tactics.Effect.fst:103">
<ellipse fill="none" stroke="#000000" stroke-dasharray="1,5" cx="1310" cy="-162" rx="32.4942" ry="18"/>
<text text-anchor="middle" x="1310" y="-158.3" font-family="Times-Roman" font-size="14.00" fill="#000000">TacF</text>
</a>
</g>
</g>
<!-- TacH&#45;&gt;TacF -->
<g id="edge35" class="edge">
<title>TacH&#45;&gt;TacF</title>
<path fill="none" stroke="#000000" stroke-dasharray="1,5" d="M1244.6022,-218.7307C1256.2666,-208.6121 1271.752,-195.179 1284.7261,-183.9243"/>
<polygon fill="#000000" stroke="#000000" points="1287.1628,-186.444 1292.4232,-177.2473 1282.5758,-181.1563 1287.1628,-186.444"/>
</g>
<!-- Lemma -->
<g id="node42" class="node">
<title>Lemma</title>
<g id="a_node42"><a xlink:href="http://github.com/FStarLang/FStar/blob/master/ulib/prims.fst#L392" xlink:title="prims.fst:392">
<ellipse fill="#bae3ff" stroke="#000000" stroke-dasharray="1,5" cx="986" cy="-18" rx="37.8943" ry="18"/>
<text text-anchor="middle" x="986" y="-14.3" font-family="Times-Roman" font-size="14.00" fill="#000000">Lemma</text>
</a>
</g>
</g>
<!-- Pure&#45;&gt;Lemma -->
<g id="edge41" class="edge">
<title>Pure&#45;&gt;Lemma</title>
<path fill="none" stroke="#000000" stroke-dasharray="1,5" d="M983.757,-71.8314C984.0779,-64.131 984.4594,-54.9743 984.816,-46.4166"/>
<polygon fill="#000000" stroke="#000000" points="988.3133,-46.5503 985.2328,-36.4133 981.3194,-46.2589 988.3133,-46.5503"/>
</g>
<!-- M -->
<g id="node43" class="node">
<title>M</title>
<g id="a_node43"><a xlink:href="http://github.com/FStarLang/FStar/blob/master/ulib/prims.fst#L398" xlink:title="prims.fst:398">
<ellipse fill="#bae3ff" stroke="#000000" stroke-dasharray="1,5" cx="903" cy="-18" rx="27" ry="18"/>
<text text-anchor="middle" x="903" y="-14.3" font-family="Times-Roman" font-size="14.00" fill="#000000">M</text>
</a>
</g>
</g>
<!-- Tot&#45;&gt;M -->
<g id="edge42" class="edge">
<title>Tot&#45;&gt;M</title>
<path fill="none" stroke="#000000" stroke-dasharray="1,5" d="M905.243,-71.8314C904.9221,-64.131 904.5406,-54.9743 904.184,-46.4166"/>
<polygon fill="#000000" stroke="#000000" points="907.6806,-46.2589 903.7672,-36.4133 900.6867,-46.5503 907.6806,-46.2589"/>
</g>
</g>
</svg>
