<?xml version="1.0" encoding="UTF-8" standalone="no"?>
<!DOCTYPE svg PUBLIC "-//W3C//DTD SVG 1.1//EN"
 "http://www.w3.org/Graphics/SVG/1.1/DTD/svg11.dtd">
<!-- Generated by graphviz version 2.40.1 (20161225.0304)
 -->
<!-- Title: G Pages: 1 -->
<svg width="1660pt" height="476pt"
 viewBox="0.00 0.00 1660.00 476.00" xmlns="http://www.w3.org/2000/svg" xmlns:xlink="http://www.w3.org/1999/xlink">
<g id="graph0" class="graph" transform="scale(1 1) rotate(0) translate(4 472)">
<title>G</title>
<polygon fill="#ffffff" stroke="transparent" points="-4,4 -4,-472 1656,-472 1656,4 -4,4"/>
<!-- ALL -->
<g id="node1" class="node">
<title>ALL</title>
<g id="a_node1"><a xlink:href="http://github.com/FStarLang/FStar/blob/master/ulib/FStar.HyperStack.All.fst#L23" xlink:title="FStar.HyperStack.All.fst:23">
<ellipse fill="none" stroke="#000000" cx="83" cy="-90" rx="27.8951" ry="18"/>
<text text-anchor="middle" x="83" y="-86.3" font-family="Times,serif" font-size="14.00" fill="#000000">ALL</text>
</a>
</g>
</g>
<!-- ALL_h -->
<g id="node7" class="node">
<title>ALL_h</title>
<g id="a_node7"><a xlink:href="http://github.com/FStarLang/FStar/blob/master/ulib/FStar.Pervasives.fst#L222" xlink:title="FStar.Pervasives.fst:222">
<ellipse fill="none" stroke="#000000" cx="83" cy="-18" rx="36.2938" ry="18"/>
<text text-anchor="middle" x="83" y="-14.3" font-family="Times,serif" font-size="14.00" fill="#000000">ALL_h</text>
</a>
</g>
</g>
<!-- ALL&#45;&gt;ALL_h -->
<g id="edge43" class="edge">
<title>ALL&#45;&gt;ALL_h</title>
<path fill="none" stroke="#f6e58d" d="M83,-71.8314C83,-64.131 83,-54.9743 83,-46.4166"/>
<polygon fill="#f6e58d" stroke="#f6e58d" points="86.5001,-46.4132 83,-36.4133 79.5001,-46.4133 86.5001,-46.4132"/>
</g>
<!-- GST -->
<g id="node2" class="node">
<title>GST</title>
<g id="a_node2"><a xlink:href="http://github.com/FStarLang/FStar/blob/master/ulib/FStar.ST.fst#L26" xlink:title="FStar.ST.fst:26">
<ellipse fill="none" stroke="#000000" cx="1013" cy="-234" rx="27.0966" ry="18"/>
<text text-anchor="middle" x="1013" y="-230.3" font-family="Times,serif" font-size="14.00" fill="#000000">GST</text>
</a>
</g>
</g>
<!-- STATE -->
<g id="node3" class="node">
<title>STATE</title>
<g id="a_node3"><a xlink:href="http://github.com/FStarLang/FStar/blob/master/ulib/reclaimable/FStar.ST.fst#L29" xlink:title="reclaimable/FStar.ST.fst:29">
<ellipse fill="none" stroke="#000000" cx="747" cy="-162" rx="38.1938" ry="18"/>
<text text-anchor="middle" x="747" y="-158.3" font-family="Times,serif" font-size="14.00" fill="#000000">STATE</text>
</a>
</g>
</g>
<!-- GST&#45;&gt;STATE -->
<g id="edge1" class="edge">
<title>GST&#45;&gt;STATE</title>
<path fill="none" stroke="#000000" d="M991.6581,-222.3099C986.9219,-220.0053 981.8625,-217.7591 977,-216 915.1948,-193.6404 840.6471,-178.1149 793.5249,-169.6287"/>
<polygon fill="#000000" stroke="#000000" points="794.0679,-166.1705 783.611,-167.8744 792.8481,-173.0634 794.0679,-166.1705"/>
</g>
<!-- STATE_h -->
<g id="node5" class="node">
<title>STATE_h</title>
<g id="a_node5"><a xlink:href="http://github.com/FStarLang/FStar/blob/master/ulib/FStar.Pervasives.fst#L99" xlink:title="FStar.Pervasives.fst:99">
<ellipse fill="none" stroke="#000000" cx="900" cy="-90" rx="46.5926" ry="18"/>
<text text-anchor="middle" x="900" y="-86.3" font-family="Times,serif" font-size="14.00" fill="#000000">STATE_h</text>
</a>
</g>
</g>
<!-- GST&#45;&gt;STATE_h -->
<g id="edge44" class="edge">
<title>GST&#45;&gt;STATE_h</title>
<path fill="none" stroke="#f6e58d" d="M1000.2571,-217.7613C980.7146,-192.8575 943.1761,-145.0209 919.9886,-115.4722"/>
<polygon fill="#f6e58d" stroke="#f6e58d" points="922.4994,-113.0023 913.5725,-107.296 916.9925,-117.3236 922.4994,-113.0023"/>
</g>
<!-- STATE&#45;&gt;ALL -->
<g id="edge2" class="edge">
<title>STATE&#45;&gt;ALL</title>
<path fill="none" stroke="#000000" d="M709.398,-157.9227C592.7393,-145.2729 237.7907,-106.7845 120.8267,-94.1017"/>
<polygon fill="#000000" stroke="#000000" points="120.9017,-90.5894 110.5827,-92.9909 120.147,-97.5486 120.9017,-90.5894"/>
</g>
<!-- STATE&#45;&gt;STATE_h -->
<g id="edge45" class="edge">
<title>STATE&#45;&gt;STATE_h</title>
<path fill="none" stroke="#f6e58d" d="M774.3533,-149.1278C798.4962,-137.7665 833.9643,-121.0756 861.0656,-108.3221"/>
<polygon fill="#f6e58d" stroke="#f6e58d" points="862.7125,-111.4153 870.2704,-103.9904 859.7319,-105.0816 862.7125,-111.4153"/>
</g>
<!-- DIV -->
<g id="node4" class="node">
<title>DIV</title>
<g id="a_node4"><a xlink:href="http://github.com/FStarLang/FStar/blob/master/ulib/FStar.Pervasives.fst#L36" xlink:title="FStar.Pervasives.fst:36">
<ellipse fill="none" stroke="#000000" cx="979" cy="-306" rx="27" ry="18"/>
<text text-anchor="middle" x="979" y="-302.3" font-family="Times,serif" font-size="14.00" fill="#000000">DIV</text>
</a>
</g>
</g>
<!-- DIV&#45;&gt;GST -->
<g id="edge3" class="edge">
<title>DIV&#45;&gt;GST</title>
<path fill="none" stroke="#000000" d="M987.2305,-288.5708C991.1979,-280.1691 996.0429,-269.9091 1000.4567,-260.5623"/>
<polygon fill="#000000" stroke="#000000" points="1003.7401,-261.8057 1004.8453,-251.2687 997.4104,-258.8166 1003.7401,-261.8057"/>
</g>
<!-- DIV&#45;&gt;STATE -->
<g id="edge4" class="edge">
<title>DIV&#45;&gt;STATE</title>
<path fill="none" stroke="#000000" d="M952.0368,-303.8399C873.6594,-297.2903 650.0873,-276.5903 629,-252 618.5845,-239.8543 620.355,-229.4634 629,-216 644.7435,-191.4817 674.6968,-177.9544 700.4841,-170.5706"/>
<polygon fill="#000000" stroke="#000000" points="701.7067,-173.8683 710.4901,-167.9435 699.9291,-167.0977 701.7067,-173.8683"/>
</g>
<!-- EXN -->
<g id="node6" class="node">
<title>EXN</title>
<g id="a_node6"><a xlink:href="http://github.com/FStarLang/FStar/blob/master/ulib/FStar.Pervasives.fst#L154" xlink:title="FStar.Pervasives.fst:154">
<ellipse fill="none" stroke="#000000" cx="109" cy="-234" rx="28.6953" ry="18"/>
<text text-anchor="middle" x="109" y="-230.3" font-family="Times,serif" font-size="14.00" fill="#000000">EXN</text>
</a>
</g>
</g>
<!-- DIV&#45;&gt;EXN -->
<g id="edge5" class="edge">
<title>DIV&#45;&gt;EXN</title>
<path fill="none" stroke="#000000" d="M951.6923,-305.1124C852.1575,-301.6583 499.5397,-287.5048 211,-252 189.5177,-249.3566 165.6872,-245.2196 146.4658,-241.578"/>
<polygon fill="#000000" stroke="#000000" points="147.071,-238.1303 136.5892,-239.6741 145.7459,-245.0038 147.071,-238.1303"/>
</g>
<!-- READER -->
<g id="node8" class="node">
<title>READER</title>
<g id="a_node8"><a xlink:href="http://github.com/FStarLang/FStar/blob/master/ulib/FStar.Reader.fst#L82" xlink:title="FStar.Reader.fst:82">
<ellipse fill="none" stroke="#000000" cx="384" cy="-234" rx="46.2923" ry="18"/>
<text text-anchor="middle" x="384" y="-230.3" font-family="Times,serif" font-size="14.00" fill="#000000">READER</text>
</a>
</g>
</g>
<!-- DIV&#45;&gt;READER -->
<g id="edge6" class="edge">
<title>DIV&#45;&gt;READER</title>
<path fill="none" stroke="#000000" d="M951.9961,-305.3615C872.5153,-303.0433 632.8237,-292.9024 439,-252 435.183,-251.1945 431.2586,-250.2193 427.3473,-249.1443"/>
<polygon fill="#000000" stroke="#000000" points="428.3015,-245.7768 417.72,-246.3067 426.3225,-252.4912 428.3015,-245.7768"/>
</g>
<!-- STATE2 -->
<g id="node10" class="node">
<title>STATE2</title>
<g id="a_node10"><a xlink:href="http://github.com/FStarLang/FStar/blob/master/ulib/FStar.Relational.Comp.fst#L24" xlink:title="FStar.Relational.Comp.fst:24">
<ellipse fill="none" stroke="#000000" cx="1232" cy="-162" rx="42.4939" ry="18"/>
<text text-anchor="middle" x="1232" y="-158.3" font-family="Times,serif" font-size="14.00" fill="#000000">STATE2</text>
</a>
</g>
</g>
<!-- DIV&#45;&gt;STATE2 -->
<g id="edge7" class="edge">
<title>DIV&#45;&gt;STATE2</title>
<path fill="none" stroke="#000000" d="M1000.0307,-294.6884C1004.8728,-292.3086 1010.0547,-289.9358 1015,-288 1068.4386,-267.0823 1089.3644,-280.8017 1139,-252 1168.0366,-235.1511 1194.8589,-207.3118 1212.1605,-187.0506"/>
<polygon fill="#000000" stroke="#000000" points="1215.029,-189.0759 1218.7505,-179.1561 1209.6552,-184.59 1215.029,-189.0759"/>
</g>
<!-- TAC -->
<g id="node11" class="node">
<title>TAC</title>
<g id="a_node11"><a xlink:href="http://github.com/FStarLang/FStar/blob/master/ulib/FStar.Tactics.Effect.fst#L83" xlink:title="FStar.Tactics.Effect.fst:83">
<ellipse fill="none" stroke="#000000" cx="477" cy="-234" rx="28.6953" ry="18"/>
<text text-anchor="middle" x="477" y="-230.3" font-family="Times,serif" font-size="14.00" fill="#000000">TAC</text>
</a>
</g>
</g>
<!-- DIV&#45;&gt;TAC -->
<g id="edge8" class="edge">
<title>DIV&#45;&gt;TAC</title>
<path fill="none" stroke="#000000" d="M952.0649,-304.0242C865.9844,-297.5287 598.3204,-275.8794 515,-252 512.8334,-251.379 510.6366,-250.6461 508.4485,-249.8371"/>
<polygon fill="#000000" stroke="#000000" points="509.6083,-246.5287 499.0312,-245.9157 506.9174,-252.9909 509.6083,-246.5287"/>
</g>
<!-- PURE -->
<g id="node13" class="node">
<title>PURE</title>
<g id="a_node13"><a xlink:href="http://github.com/FStarLang/FStar/blob/master/ulib/prims.fst#L218" xlink:title="prims.fst:218">
<ellipse fill="#bae3ff" stroke="#000000" cx="1333" cy="-234" rx="33.2948" ry="18"/>
<text text-anchor="middle" x="1333" y="-230.3" font-family="Times,serif" font-size="14.00" fill="#000000">PURE</text>
</a>
</g>
</g>
<!-- DIV&#45;&gt;PURE -->
<g id="edge46" class="edge">
<title>DIV&#45;&gt;PURE</title>
<path fill="none" stroke="#f6e58d" d="M996.0325,-291.9004C999.2821,-290.4337 1002.6791,-289.0855 1006,-288 1057.6622,-271.1129 1213.8219,-248.7867 1290.2212,-238.98"/>
<polygon fill="#f6e58d" stroke="#f6e58d" points="1290.9734,-242.4127 1300.453,-237.6812 1290.0918,-235.4685 1290.9734,-242.4127"/>
</g>
<!-- EXN&#45;&gt;ALL -->
<g id="edge9" class="edge">
<title>EXN&#45;&gt;ALL</title>
<path fill="none" stroke="#000000" d="M105.7597,-216.0535C101.3223,-191.4774 93.3099,-147.1008 88.0731,-118.0974"/>
<polygon fill="#000000" stroke="#000000" points="91.5024,-117.3917 86.2812,-108.1727 84.6138,-118.6355 91.5024,-117.3917"/>
</g>
<!-- READER&#45;&gt;STATE -->
<g id="edge10" class="edge">
<title>READER&#45;&gt;STATE</title>
<path fill="none" stroke="#000000" d="M418.4012,-221.9089C425.1788,-219.7635 432.2745,-217.681 439,-216 530.1109,-193.2276 638.7301,-176.5736 699.5903,-168.1678"/>
<polygon fill="#000000" stroke="#000000" points="700.2265,-171.6135 709.6607,-166.7921 699.279,-164.6779 700.2265,-171.6135"/>
</g>
<!-- READER_h -->
<g id="node9" class="node">
<title>READER_h</title>
<g id="a_node9"><a xlink:href="http://github.com/FStarLang/FStar/blob/master/ulib/FStar.Reader.fst#L68" xlink:title="FStar.Reader.fst:68">
<ellipse fill="none" stroke="#000000" cx="371" cy="-162" rx="54.6905" ry="18"/>
<text text-anchor="middle" x="371" y="-158.3" font-family="Times,serif" font-size="14.00" fill="#000000">READER_h</text>
</a>
</g>
</g>
<!-- READER&#45;&gt;READER_h -->
<g id="edge47" class="edge">
<title>READER&#45;&gt;READER_h</title>
<path fill="none" stroke="#f6e58d" d="M380.7196,-215.8314C379.3292,-208.131 377.6759,-198.9743 376.1308,-190.4166"/>
<polygon fill="#f6e58d" stroke="#f6e58d" points="379.5458,-189.6322 374.3246,-180.4133 372.6572,-190.8761 379.5458,-189.6322"/>
</g>
<!-- STATE2&#45;&gt;STATE_h -->
<g id="edge48" class="edge">
<title>STATE2&#45;&gt;STATE_h</title>
<path fill="none" stroke="#f6e58d" d="M1199.0234,-150.6887C1191.5047,-148.3089 1183.5159,-145.936 1176,-144 1099.4404,-124.2794 1009.3118,-107.9021 953.4079,-98.5283"/>
<polygon fill="#f6e58d" stroke="#f6e58d" points="953.8175,-95.0484 943.3787,-96.8603 952.669,-101.9536 953.8175,-95.0484"/>
</g>
<!-- GHOST -->
<g id="node12" class="node">
<title>GHOST</title>
<g id="a_node12"><a xlink:href="http://github.com/FStarLang/FStar/blob/master/ulib/prims.fst#L243" xlink:title="prims.fst:243">
<ellipse fill="#bae3ff" stroke="#000000" cx="1333" cy="-162" rx="40.0939" ry="18"/>
<text text-anchor="middle" x="1333" y="-158.3" font-family="Times,serif" font-size="14.00" fill="#000000">GHOST</text>
</a>
</g>
</g>
<!-- GHOST&#45;&gt;PURE -->
<g id="edge49" class="edge">
<title>GHOST&#45;&gt;PURE</title>
<path fill="none" stroke="#f6e58d" d="M1338.9202,-179.8425C1339.7078,-187.7236 1339.9348,-197.1774 1339.601,-205.9647"/>
<polygon fill="#f6e58d" stroke="#f6e58d" points="1336.0915,-205.9908 1338.9157,-216.2022 1343.0759,-206.4583 1336.0915,-205.9908"/>
</g>
<!-- PURE&#45;&gt;DIV -->
<g id="edge11" class="edge">
<title>PURE&#45;&gt;DIV</title>
<path fill="none" stroke="#000000" d="M1301.0382,-238.8849C1232.8372,-248.6417 1075.83,-271.058 1024,-288 1020.0398,-289.2945 1015.9714,-290.9624 1011.9464,-292.7596"/>
<polygon fill="#000000" stroke="#000000" points="1010.2861,-289.672 1002.7046,-297.0728 1013.2466,-296.0152 1010.2861,-289.672"/>
</g>
<!-- PURE&#45;&gt;GHOST -->
<g id="edge12" class="edge">
<title>PURE&#45;&gt;GHOST</title>
<path fill="none" stroke="#000000" d="M1327.0843,-216.2022C1326.2945,-208.3271 1326.0655,-198.875 1326.3971,-190.0852"/>
<polygon fill="#000000" stroke="#000000" points="1329.9069,-190.0532 1327.0798,-179.8425 1322.9224,-189.5876 1329.9069,-190.0532"/>
</g>
<!-- All -->
<g id="node14" class="node">
<title>All</title>
<g id="a_node14"><a xlink:href="http://github.com/FStarLang/FStar/blob/master/ulib/FStar.All.fst#L33" xlink:title="FStar.All.fst:33">
<ellipse fill="none" stroke="#000000" stroke-dasharray="1,5" cx="137" cy="-162" rx="27" ry="18"/>
<text text-anchor="middle" x="137" y="-158.3" font-family="Times,serif" font-size="14.00" fill="#000000">All</text>
</a>
</g>
</g>
<!-- All&#45;&gt;ALL -->
<g id="edge13" class="edge">
<title>All&#45;&gt;ALL</title>
<path fill="none" stroke="#000000" stroke-dasharray="1,5" d="M124.7466,-145.6621C117.8423,-136.4564 109.0823,-124.7764 101.3715,-114.4953"/>
<polygon fill="#000000" stroke="#000000" points="104.005,-112.1733 95.2049,-106.2733 98.405,-116.3733 104.005,-112.1733"/>
</g>
<!-- All&#45;&gt;ALL_h -->
<g id="edge50" class="edge">
<title>All&#45;&gt;ALL_h</title>
<path fill="none" stroke="#f6e58d" d="M135.7716,-143.7842C134.0128,-125.1442 129.8208,-95.6425 120,-72 115.8148,-61.9247 109.5654,-51.8121 103.3885,-43.107"/>
<polygon fill="#f6e58d" stroke="#f6e58d" points="106.0855,-40.8682 97.3148,-34.9247 100.4648,-45.0404 106.0855,-40.8682"/>
</g>
<!-- ML -->
<g id="node15" class="node">
<title>ML</title>
<g id="a_node15"><a xlink:href="http://github.com/FStarLang/FStar/blob/master/ulib/FStar.All.fst#L37" xlink:title="FStar.All.fst:37">
<ellipse fill="none" stroke="#000000" stroke-dasharray="1,5" cx="27" cy="-162" rx="27" ry="18"/>
<text text-anchor="middle" x="27" y="-158.3" font-family="Times,serif" font-size="14.00" fill="#000000">ML</text>
</a>
</g>
</g>
<!-- ML&#45;&gt;ALL -->
<g id="edge14" class="edge">
<title>ML&#45;&gt;ALL</title>
<path fill="none" stroke="#000000" stroke-dasharray="1,5" d="M39.7073,-145.6621C46.9388,-136.3644 56.1336,-124.5426 64.1876,-114.1873"/>
<polygon fill="#000000" stroke="#000000" points="66.9663,-116.3156 70.343,-106.2733 61.4408,-112.018 66.9663,-116.3156"/>
</g>
<!-- ML&#45;&gt;ALL_h -->
<g id="edge51" class="edge">
<title>ML&#45;&gt;ALL_h</title>
<path fill="none" stroke="#f6e58d" d="M28.7283,-143.782C30.9771,-125.1402 35.884,-95.637 46,-72 50.2926,-61.97 56.5688,-51.8687 62.7374,-43.1601"/>
<polygon fill="#f6e58d" stroke="#f6e58d" points="65.662,-45.0917 68.7926,-34.97 60.0332,-40.9303 65.662,-45.0917"/>
</g>
<!-- Unsafe -->
<g id="node16" class="node">
<title>Unsafe</title>
<g id="a_node16"><a xlink:href="http://github.com/FStarLang/FStar/blob/master/ulib/FStar.HyperStack.ST.fsti#L97" xlink:title="FStar.HyperStack.ST.fsti:97">
<ellipse fill="none" stroke="#000000" stroke-dasharray="1,5" cx="1094" cy="-234" rx="35.9954" ry="18"/>
<text text-anchor="middle" x="1094" y="-230.3" font-family="Times,serif" font-size="14.00" fill="#000000">Unsafe</text>
</a>
</g>
</g>
<!-- Unsafe&#45;&gt;STATE -->
<g id="edge15" class="edge">
<title>Unsafe&#45;&gt;STATE</title>
<path fill="none" stroke="#000000" stroke-dasharray="1,5" d="M1066.7033,-222.0538C1060.9323,-219.8199 1054.8245,-217.6668 1049,-216 960.9006,-190.7885 854.8151,-175.0744 794.71,-167.4792"/>
<polygon fill="#000000" stroke="#000000" points="795.1078,-164.0018 784.7526,-166.2423 794.2449,-170.9484 795.1078,-164.0018"/>
</g>
<!-- Unsafe&#45;&gt;STATE_h -->
<g id="edge52" class="edge">
<title>Unsafe&#45;&gt;STATE_h</title>
<path fill="none" stroke="#f6e58d" d="M1073.6053,-218.8616C1039.2555,-193.3649 969.7178,-141.7493 929.862,-112.1656"/>
<polygon fill="#f6e58d" stroke="#f6e58d" points="931.7096,-109.1782 921.5938,-106.0284 927.5375,-114.799 931.7096,-109.1782"/>
</g>
<!-- Stack -->
<g id="node17" class="node">
<title>Stack</title>
<g id="a_node17"><a xlink:href="http://github.com/FStarLang/FStar/blob/master/ulib/FStar.HyperStack.ST.fsti#L202" xlink:title="FStar.HyperStack.ST.fsti:202">
<ellipse fill="none" stroke="#000000" stroke-dasharray="1,5" cx="251" cy="-234" rx="30.5947" ry="18"/>
<text text-anchor="middle" x="251" y="-230.3" font-family="Times,serif" font-size="14.00" fill="#000000">Stack</text>
</a>
</g>
</g>
<!-- Stack&#45;&gt;STATE -->
<g id="edge16" class="edge">
<title>Stack&#45;&gt;STATE</title>
<path fill="none" stroke="#000000" stroke-dasharray="1,5" d="M279.0231,-226.8303C293.8148,-223.2245 312.3118,-218.996 329,-216 462.3726,-192.0557 621.5179,-174.496 699.3577,-166.6134"/>
<polygon fill="#000000" stroke="#000000" points="699.7408,-170.0927 709.3408,-165.6105 699.041,-163.1277 699.7408,-170.0927"/>
</g>
<!-- Stack&#45;&gt;STATE_h -->
<g id="edge53" class="edge">
<title>Stack&#45;&gt;STATE_h</title>
<path fill="none" stroke="#f6e58d" d="M256.5621,-216.285C264.2258,-195.1237 280.2134,-160.5155 307,-144 352.0164,-116.2448 703.9537,-98.3585 843.3857,-92.2978"/>
<polygon fill="#f6e58d" stroke="#f6e58d" points="843.6059,-95.7916 853.4462,-91.865 843.3049,-88.7981 843.6059,-95.7916"/>
</g>
<!-- Heap -->
<g id="node18" class="node">
<title>Heap</title>
<g id="a_node18"><a xlink:href="http://github.com/FStarLang/FStar/blob/master/ulib/FStar.HyperStack.ST.fsti#L213" xlink:title="FStar.HyperStack.ST.fsti:213">
<ellipse fill="none" stroke="#000000" stroke-dasharray="1,5" cx="553" cy="-234" rx="29.4969" ry="18"/>
<text text-anchor="middle" x="553" y="-230.3" font-family="Times,serif" font-size="14.00" fill="#000000">Heap</text>
</a>
</g>
</g>
<!-- Heap&#45;&gt;STATE -->
<g id="edge17" class="edge">
<title>Heap&#45;&gt;STATE</title>
<path fill="none" stroke="#000000" stroke-dasharray="1,5" d="M577.0158,-223.6827C583.1774,-221.1085 589.8127,-218.3994 596,-216 633.1251,-201.603 675.8985,-186.4381 706.4215,-175.8568"/>
<polygon fill="#000000" stroke="#000000" points="707.5698,-179.1632 715.8784,-172.5892 705.2837,-172.547 707.5698,-179.1632"/>
</g>
<!-- Heap&#45;&gt;STATE_h -->
<g id="edge54" class="edge">
<title>Heap&#45;&gt;STATE_h</title>
<path fill="none" stroke="#f6e58d" d="M568.8333,-218.8396C590.7165,-198.7282 632.2526,-163.5027 674,-144 729.162,-118.2306 797.8337,-104.0771 844.9129,-96.7999"/>
<polygon fill="#f6e58d" stroke="#f6e58d" points="845.5399,-100.2452 854.9136,-95.3072 844.5064,-93.3219 845.5399,-100.2452"/>
</g>
<!-- ST -->
<g id="node19" class="node">
<title>ST</title>
<g id="a_node19"><a xlink:href="http://github.com/FStarLang/FStar/blob/master/ulib/FStar.HyperStack.ST.fsti#L226" xlink:title="FStar.HyperStack.ST.fsti:226">
<ellipse fill="none" stroke="#000000" stroke-dasharray="1,5" cx="665" cy="-234" rx="27" ry="18"/>
<text text-anchor="middle" x="665" y="-230.3" font-family="Times,serif" font-size="14.00" fill="#000000">ST</text>
</a>
</g>
</g>
<!-- ST&#45;&gt;STATE -->
<g id="edge18" class="edge">
<title>ST&#45;&gt;STATE</title>
<path fill="none" stroke="#000000" stroke-dasharray="1,5" d="M681.5939,-219.4297C692.9103,-209.4934 708.1268,-196.1326 721.0352,-184.7983"/>
<polygon fill="#000000" stroke="#000000" points="723.5137,-187.2799 728.7188,-178.0518 718.895,-182.0198 723.5137,-187.2799"/>
</g>
<!-- ST&#45;&gt;STATE_h -->
<g id="edge55" class="edge">
<title>ST&#45;&gt;STATE_h</title>
<path fill="none" stroke="#f6e58d" d="M667.1969,-215.7135C670.6229,-195.3079 679.1708,-162.7083 700,-144 721.5103,-124.6799 794.8912,-108.3276 846.5032,-98.836"/>
<polygon fill="#f6e58d" stroke="#f6e58d" points="847.2937,-102.25 856.5135,-97.0303 846.051,-95.3612 847.2937,-102.25"/>
</g>
<!-- St -->
<g id="node20" class="node">
<title>St</title>
<g id="a_node20"><a xlink:href="http://github.com/FStarLang/FStar/blob/master/ulib/FStar.HyperStack.ST.fsti#L229" xlink:title="FStar.HyperStack.ST.fsti:229">
<ellipse fill="none" stroke="#000000" stroke-dasharray="1,5" cx="1051" cy="-306" rx="27" ry="18"/>
<text text-anchor="middle" x="1051" y="-302.3" font-family="Times,serif" font-size="14.00" fill="#000000">St</text>
</a>
</g>
</g>
<!-- St&#45;&gt;STATE_h -->
<g id="edge56" class="edge">
<title>St&#45;&gt;STATE_h</title>
<path fill="none" stroke="#f6e58d" d="M1071.9903,-294.546C1096.8052,-280.7905 1135.2359,-258.7261 1139,-252 1146.8137,-238.0377 1147.0775,-229.8114 1139,-216 1099.4598,-148.3922 1009.8232,-115.3748 952.2618,-100.5868"/>
<polygon fill="#f6e58d" stroke="#f6e58d" points="952.8058,-97.1161 942.2583,-98.1168 951.1277,-103.912 952.8058,-97.1161"/>
</g>
<!-- St&#45;&gt;ST -->
<g id="edge19" class="edge">
<title>St&#45;&gt;ST</title>
<path fill="none" stroke="#000000" stroke-dasharray="1,5" d="M1030.1848,-294.0613C1025.3315,-291.7141 1020.0906,-289.513 1015,-288 880.3516,-247.9805 835.6484,-292.0195 701,-252 699.091,-251.4326 697.1609,-250.7685 695.2381,-250.0362"/>
<polygon fill="#000000" stroke="#000000" points="696.3814,-246.7168 685.8152,-245.9387 693.59,-253.1362 696.3814,-246.7168"/>
</g>
<!-- StackInline -->
<g id="node21" class="node">
<title>StackInline</title>
<g id="a_node21"><a xlink:href="http://github.com/FStarLang/FStar/blob/master/ulib/FStar.HyperStack.ST.fsti#L246" xlink:title="FStar.HyperStack.ST.fsti:246">
<ellipse fill="none" stroke="#000000" stroke-dasharray="1,5" cx="761" cy="-234" rx="50.8918" ry="18"/>
<text text-anchor="middle" x="761" y="-230.3" font-family="Times,serif" font-size="14.00" fill="#000000">StackInline</text>
</a>
</g>
</g>
<!-- StackInline&#45;&gt;STATE -->
<g id="edge20" class="edge">
<title>StackInline&#45;&gt;STATE</title>
<path fill="none" stroke="#000000" stroke-dasharray="1,5" d="M757.4672,-215.8314C755.9699,-208.131 754.1895,-198.9743 752.5255,-190.4166"/>
<polygon fill="#000000" stroke="#000000" points="755.9248,-189.5614 750.5804,-180.4133 749.0535,-190.8975 755.9248,-189.5614"/>
</g>
<!-- StackInline&#45;&gt;STATE_h -->
<g id="edge57" class="edge">
<title>StackInline&#45;&gt;STATE_h</title>
<path fill="none" stroke="#f6e58d" d="M777.491,-216.9158C802.0483,-191.4752 848.3447,-143.5134 876.4579,-114.389"/>
<polygon fill="#f6e58d" stroke="#f6e58d" points="879.1036,-116.6876 883.5305,-107.0619 874.0672,-111.8261 879.1036,-116.6876"/>
</g>
<!-- Inline -->
<g id="node22" class="node">
<title>Inline</title>
<g id="a_node22"><a xlink:href="http://github.com/FStarLang/FStar/blob/master/ulib/FStar.HyperStack.ST.fsti#L264" xlink:title="FStar.HyperStack.ST.fsti:264">
<ellipse fill="none" stroke="#000000" stroke-dasharray="1,5" cx="861" cy="-234" rx="31.3957" ry="18"/>
<text text-anchor="middle" x="861" y="-230.3" font-family="Times,serif" font-size="14.00" fill="#000000">Inline</text>
</a>
</g>
</g>
<!-- Inline&#45;&gt;STATE -->
<g id="edge21" class="edge">
<title>Inline&#45;&gt;STATE</title>
<path fill="none" stroke="#000000" stroke-dasharray="1,5" d="M839.8246,-220.6261C822.6263,-209.764 798.1106,-194.2804 778.5923,-181.953"/>
<polygon fill="#000000" stroke="#000000" points="780.3442,-178.9199 770.0203,-176.5391 776.6062,-184.8383 780.3442,-178.9199"/>
</g>
<!-- Inline&#45;&gt;STATE_h -->
<g id="edge58" class="edge">
<title>Inline&#45;&gt;STATE_h</title>
<path fill="none" stroke="#f6e58d" d="M865.8605,-216.0535C872.5165,-191.4774 884.5352,-147.1008 892.3903,-118.0974"/>
<polygon fill="#f6e58d" stroke="#f6e58d" points="895.8423,-118.74 895.0782,-108.1727 889.0857,-116.91 895.8423,-118.74"/>
</g>
<!-- STL -->
<g id="node23" class="node">
<title>STL</title>
<g id="a_node23"><a xlink:href="http://github.com/FStarLang/FStar/blob/master/ulib/FStar.HyperStack.ST.fsti#L272" xlink:title="FStar.HyperStack.ST.fsti:272">
<ellipse fill="none" stroke="#000000" stroke-dasharray="1,5" cx="230" cy="-306" rx="27" ry="18"/>
<text text-anchor="middle" x="230" y="-302.3" font-family="Times,serif" font-size="14.00" fill="#000000">STL</text>
</a>
</g>
</g>
<!-- STL&#45;&gt;STATE_h -->
<g id="edge59" class="edge">
<title>STL&#45;&gt;STATE_h</title>
<path fill="none" stroke="#f6e58d" d="M220.9478,-289.025C212.3895,-270.6356 202.0843,-240.6255 211,-216 225.1803,-176.8333 234.0689,-163.2666 271,-144 321.0581,-117.8852 698.0401,-98.8253 843.2323,-92.3822"/>
<polygon fill="#f6e58d" stroke="#f6e58d" points="843.4415,-95.8765 853.2779,-91.9402 843.1337,-88.8832 843.4415,-95.8765"/>
</g>
<!-- STL&#45;&gt;Stack -->
<g id="edge22" class="edge">
<title>STL&#45;&gt;Stack</title>
<path fill="none" stroke="#000000" stroke-dasharray="1,5" d="M235.191,-288.2022C237.5384,-280.1541 240.3662,-270.4588 242.9772,-261.5067"/>
<polygon fill="#000000" stroke="#000000" points="246.3559,-262.4226 245.7959,-251.8425 239.6359,-260.4625 246.3559,-262.4226"/>
</g>
<!-- Div -->
<g id="node24" class="node">
<title>Div</title>
<g id="a_node24"><a xlink:href="http://github.com/FStarLang/FStar/blob/master/ulib/FStar.Pervasives.fst#L38" xlink:title="FStar.Pervasives.fst:38">
<ellipse fill="none" stroke="#000000" stroke-dasharray="1,5" cx="1077" cy="-378" rx="27" ry="18"/>
<text text-anchor="middle" x="1077" y="-374.3" font-family="Times,serif" font-size="14.00" fill="#000000">Div</text>
</a>
</g>
</g>
<!-- Div&#45;&gt;DIV -->
<g id="edge23" class="edge">
<title>Div&#45;&gt;DIV</title>
<path fill="none" stroke="#000000" stroke-dasharray="1,5" d="M1058.5669,-364.4574C1043.6469,-353.4956 1022.4314,-337.9088 1005.6592,-325.5864"/>
<polygon fill="#000000" stroke="#000000" points="1007.4815,-322.5821 997.3504,-319.4819 1003.337,-328.2233 1007.4815,-322.5821"/>
</g>
<!-- Div&#45;&gt;PURE -->
<g id="edge60" class="edge">
<title>Div&#45;&gt;PURE</title>
<path fill="none" stroke="#f6e58d" d="M1103.4149,-373.6148C1137.9903,-366.9927 1199.5307,-352.1168 1245,-324 1260.0289,-314.7066 1291.1874,-281.2391 1312.0994,-257.8484"/>
<polygon fill="#f6e58d" stroke="#f6e58d" points="1314.7347,-260.1519 1318.7604,-250.3517 1309.5018,-255.5024 1314.7347,-260.1519"/>
</g>
<!-- Dv -->
<g id="node25" class="node">
<title>Dv</title>
<g id="a_node25"><a xlink:href="http://github.com/FStarLang/FStar/blob/master/ulib/FStar.Pervasives.fst#L41" xlink:title="FStar.Pervasives.fst:41">
<ellipse fill="none" stroke="#000000" stroke-dasharray="1,5" cx="1247" cy="-378" rx="27" ry="18"/>
<text text-anchor="middle" x="1247" y="-374.3" font-family="Times,serif" font-size="14.00" fill="#000000">Dv</text>
</a>
</g>
</g>
<!-- Dv&#45;&gt;DIV -->
<g id="edge24" class="edge">
<title>Dv&#45;&gt;DIV</title>
<path fill="none" stroke="#000000" stroke-dasharray="1,5" d="M1220.6775,-373.9495C1177.0411,-366.7787 1087.3564,-350.0983 1015,-324 1013.1266,-323.3243 1011.2242,-322.5759 1009.3224,-321.7795"/>
<polygon fill="#000000" stroke="#000000" points="1010.507,-318.4731 999.956,-317.5102 1007.6037,-324.8426 1010.507,-318.4731"/>
</g>
<!-- Dv&#45;&gt;PURE -->
<g id="edge61" class="edge">
<title>Dv&#45;&gt;PURE</title>
<path fill="none" stroke="#f6e58d" d="M1273.1118,-372.9952C1314.2564,-364.5192 1391.1421,-346.0888 1407,-324 1416.331,-311.0026 1414.249,-302.2637 1407,-288 1398.7654,-271.797 1383.1359,-259.2991 1368.3548,-250.4273"/>
<polygon fill="#f6e58d" stroke="#f6e58d" points="1369.7693,-247.2079 1359.3349,-245.3712 1366.3466,-253.314 1369.7693,-247.2079"/>
</g>
<!-- EXT -->
<g id="node26" class="node">
<title>EXT</title>
<g id="a_node26"><a xlink:href="http://github.com/FStarLang/FStar/blob/master/ulib/FStar.Pervasives.fst#L47" xlink:title="FStar.Pervasives.fst:47">
<ellipse fill="none" stroke="#000000" stroke-dasharray="1,5" cx="1274" cy="-450" rx="27.8951" ry="18"/>
<text text-anchor="middle" x="1274" y="-446.3" font-family="Times,serif" font-size="14.00" fill="#000000">EXT</text>
</a>
</g>
</g>
<!-- EXT&#45;&gt;PURE -->
<g id="edge62" class="edge">
<title>EXT&#45;&gt;PURE</title>
<path fill="none" stroke="#f6e58d" d="M1278.9288,-431.9555C1289.2578,-394.1409 1313.2288,-306.3825 1325.4873,-261.5042"/>
<polygon fill="#f6e58d" stroke="#f6e58d" points="1328.868,-262.4101 1328.1267,-251.8413 1322.1154,-260.5656 1328.868,-262.4101"/>
</g>
<!-- EXT&#45;&gt;Dv -->
<g id="edge25" class="edge">
<title>EXT&#45;&gt;Dv</title>
<path fill="none" stroke="#000000" stroke-dasharray="1,5" d="M1267.3258,-432.2022C1264.2524,-424.0064 1260.5384,-414.1024 1257.1305,-405.0145"/>
<polygon fill="#000000" stroke="#000000" points="1260.3858,-403.7274 1253.5974,-395.593 1253.8315,-406.1853 1260.3858,-403.7274"/>
</g>
<!-- Exn -->
<g id="node27" class="node">
<title>Exn</title>
<g id="a_node27"><a xlink:href="http://github.com/FStarLang/FStar/blob/master/ulib/FStar.Pervasives.fst#L168" xlink:title="FStar.Pervasives.fst:168">
<ellipse fill="none" stroke="#000000" stroke-dasharray="1,5" cx="109" cy="-306" rx="27" ry="18"/>
<text text-anchor="middle" x="109" y="-302.3" font-family="Times,serif" font-size="14.00" fill="#000000">Exn</text>
</a>
</g>
</g>
<!-- Exn&#45;&gt;EXN -->
<g id="edge26" class="edge">
<title>Exn&#45;&gt;EXN</title>
<path fill="none" stroke="#000000" stroke-dasharray="1,5" d="M109,-287.8314C109,-280.131 109,-270.9743 109,-262.4166"/>
<polygon fill="#000000" stroke="#000000" points="112.5001,-262.4132 109,-252.4133 105.5001,-262.4133 112.5001,-262.4132"/>
</g>
<!-- Ex -->
<g id="node28" class="node">
<title>Ex</title>
<g id="a_node28"><a xlink:href="http://github.com/FStarLang/FStar/blob/master/ulib/FStar.Pervasives.fst#L173" xlink:title="FStar.Pervasives.fst:173">
<ellipse fill="none" stroke="#000000" stroke-dasharray="1,5" cx="109" cy="-378" rx="27" ry="18"/>
<text text-anchor="middle" x="109" y="-374.3" font-family="Times,serif" font-size="14.00" fill="#000000">Ex</text>
</a>
</g>
</g>
<!-- Ex&#45;&gt;Exn -->
<g id="edge27" class="edge">
<title>Ex&#45;&gt;Exn</title>
<path fill="none" stroke="#000000" stroke-dasharray="1,5" d="M109,-359.8314C109,-352.131 109,-342.9743 109,-334.4166"/>
<polygon fill="#000000" stroke="#000000" points="112.5001,-334.4132 109,-324.4133 105.5001,-334.4133 112.5001,-334.4132"/>
</g>
<!-- STRead -->
<g id="node29" class="node">
<title>STRead</title>
<g id="a_node29"><a xlink:href="http://github.com/FStarLang/FStar/blob/master/ulib/FStar.Reader.fst#L83" xlink:title="FStar.Reader.fst:83">
<ellipse fill="none" stroke="#000000" stroke-dasharray="1,5" cx="331" cy="-306" rx="38.9931" ry="18"/>
<text text-anchor="middle" x="331" y="-302.3" font-family="Times,serif" font-size="14.00" fill="#000000">STRead</text>
</a>
</g>
</g>
<!-- STRead&#45;&gt;READER -->
<g id="edge28" class="edge">
<title>STRead&#45;&gt;READER</title>
<path fill="none" stroke="#000000" stroke-dasharray="1,5" d="M343.5603,-288.937C350,-280.1886 357.9752,-269.3545 365.1367,-259.6256"/>
<polygon fill="#000000" stroke="#000000" points="368.0522,-261.5689 371.1617,-251.4407 362.4148,-257.4192 368.0522,-261.5689"/>
</g>
<!-- STRead&#45;&gt;READER_h -->
<g id="edge63" class="edge">
<title>STRead&#45;&gt;READER_h</title>
<path fill="none" stroke="#f6e58d" d="M327.0045,-287.8495C323.7302,-269.2615 320.8339,-239.8005 329,-216 332.622,-205.4436 339.2439,-195.3611 346.1754,-186.8271"/>
<polygon fill="#f6e58d" stroke="#f6e58d" points="348.9215,-189.0027 352.8281,-179.1544 343.6327,-184.417 348.9215,-189.0027"/>
</g>
<!-- ST2 -->
<g id="node30" class="node">
<title>ST2</title>
<g id="a_node30"><a xlink:href="http://github.com/FStarLang/FStar/blob/master/ulib/FStar.Relational.Comp.fst#L29" xlink:title="FStar.Relational.Comp.fst:29">
<ellipse fill="none" stroke="#000000" stroke-dasharray="1,5" cx="1411" cy="-234" rx="27" ry="18"/>
<text text-anchor="middle" x="1411" y="-230.3" font-family="Times,serif" font-size="14.00" fill="#000000">ST2</text>
</a>
</g>
</g>
<!-- ST2&#45;&gt;STATE_h -->
<g id="edge64" class="edge">
<title>ST2&#45;&gt;STATE_h</title>
<path fill="none" stroke="#f6e58d" d="M1410.6707,-215.9656C1409.2375,-195.1574 1403.4792,-161.5594 1382,-144 1349.6145,-117.5247 1077.1023,-99.6152 956.7506,-92.9251"/>
<polygon fill="#f6e58d" stroke="#f6e58d" points="956.8019,-89.4228 946.6249,-92.3688 956.4178,-96.4122 956.8019,-89.4228"/>
</g>
<!-- ST2&#45;&gt;STATE2 -->
<g id="edge29" class="edge">
<title>ST2&#45;&gt;STATE2</title>
<path fill="none" stroke="#000000" stroke-dasharray="1,5" d="M1389.4686,-222.7849C1384.7442,-220.4506 1379.7375,-218.0723 1375,-216 1341.833,-201.4915 1303.4081,-187.1119 1274.7468,-176.8435"/>
<polygon fill="#000000" stroke="#000000" points="1275.6355,-173.4447 1265.0408,-173.3894 1273.2885,-180.0396 1275.6355,-173.4447"/>
</g>
<!-- St2 -->
<g id="node31" class="node">
<title>St2</title>
<g id="a_node31"><a xlink:href="http://github.com/FStarLang/FStar/blob/master/ulib/FStar.Relational.Comp.fst#L32" xlink:title="FStar.Relational.Comp.fst:32">
<ellipse fill="none" stroke="#000000" stroke-dasharray="1,5" cx="1625" cy="-306" rx="27" ry="18"/>
<text text-anchor="middle" x="1625" y="-302.3" font-family="Times,serif" font-size="14.00" fill="#000000">St2</text>
</a>
</g>
</g>
<!-- St2&#45;&gt;STATE_h -->
<g id="edge65" class="edge">
<title>St2&#45;&gt;STATE_h</title>
<path fill="none" stroke="#f6e58d" d="M1610.3884,-290.563C1577.6482,-257.1022 1494.3965,-178.1591 1407,-144 1326.1514,-112.4001 1071.6026,-97.5241 956.9582,-92.2942"/>
<polygon fill="#f6e58d" stroke="#f6e58d" points="956.7862,-88.7831 946.6397,-91.8323 956.4731,-95.7761 956.7862,-88.7831"/>
</g>
<!-- St2&#45;&gt;ST2 -->
<g id="edge30" class="edge">
<title>St2&#45;&gt;ST2</title>
<path fill="none" stroke="#000000" stroke-dasharray="1,5" d="M1603.5691,-294.5442C1598.8384,-292.225 1593.8038,-289.9137 1589,-288 1540.8062,-268.8012 1483.0057,-252.4338 1446.6324,-242.9042"/>
<polygon fill="#000000" stroke="#000000" points="1447.0751,-239.4035 1436.5171,-240.2858 1445.3209,-246.1801 1447.0751,-239.4035"/>
</g>
<!-- State -->
<g id="node32" class="node">
<title>State</title>
<g id="a_node32"><a xlink:href="http://github.com/FStarLang/FStar/blob/master/ulib/FStar.ST.fst#L69" xlink:title="FStar.ST.fst:69">
<ellipse fill="none" stroke="#000000" stroke-dasharray="1,5" cx="939" cy="-234" rx="28.6953" ry="18"/>
<text text-anchor="middle" x="939" y="-230.3" font-family="Times,serif" font-size="14.00" fill="#000000">State</text>
</a>
</g>
</g>
<!-- State&#45;&gt;STATE -->
<g id="edge31" class="edge">
<title>State&#45;&gt;STATE</title>
<path fill="none" stroke="#000000" stroke-dasharray="1,5" d="M916.2663,-222.7553C911.2798,-220.4229 905.9967,-218.0528 901,-216 863.5188,-200.6013 819.8509,-185.5539 788.6076,-175.2716"/>
<polygon fill="#000000" stroke="#000000" points="789.5164,-171.8864 778.9238,-172.1061 787.3414,-178.54 789.5164,-171.8864"/>
</g>
<!-- State&#45;&gt;STATE_h -->
<g id="edge66" class="edge">
<title>State&#45;&gt;STATE_h</title>
<path fill="none" stroke="#f6e58d" d="M934.1395,-216.0535C927.4835,-191.4774 915.4648,-147.1008 907.6097,-118.0974"/>
<polygon fill="#f6e58d" stroke="#f6e58d" points="910.9143,-116.91 904.9218,-108.1727 904.1577,-118.74 910.9143,-116.91"/>
</g>
<!-- TacH -->
<g id="node33" class="node">
<title>TacH</title>
<g id="a_node33"><a xlink:href="http://github.com/FStarLang/FStar/blob/master/ulib/FStar.Tactics.Effect.fst#L93" xlink:title="FStar.Tactics.Effect.fst:93">
<ellipse fill="none" stroke="#000000" stroke-dasharray="1,5" cx="477" cy="-306" rx="30.5947" ry="18"/>
<text text-anchor="middle" x="477" y="-302.3" font-family="Times,serif" font-size="14.00" fill="#000000">TacH</text>
</a>
</g>
</g>
<!-- TacH&#45;&gt;TAC -->
<g id="edge32" class="edge">
<title>TacH&#45;&gt;TAC</title>
<path fill="none" stroke="#000000" stroke-dasharray="1,5" d="M477,-287.8314C477,-280.131 477,-270.9743 477,-262.4166"/>
<polygon fill="#000000" stroke="#000000" points="480.5001,-262.4132 477,-252.4133 473.5001,-262.4133 480.5001,-262.4132"/>
</g>
<!-- Tac -->
<g id="node34" class="node">
<title>Tac</title>
<g id="a_node34"><a xlink:href="http://github.com/FStarLang/FStar/blob/master/ulib/FStar.Tactics.Effect.fst#L97" xlink:title="FStar.Tactics.Effect.fst:97">
<ellipse fill="none" stroke="#000000" stroke-dasharray="1,5" cx="403" cy="-378" rx="27" ry="18"/>
<text text-anchor="middle" x="403" y="-374.3" font-family="Times,serif" font-size="14.00" fill="#000000">Tac</text>
</a>
</g>
</g>
<!-- Tac&#45;&gt;TacH -->
<g id="edge33" class="edge">
<title>Tac&#45;&gt;TacH</title>
<path fill="none" stroke="#000000" stroke-dasharray="1,5" d="M418.3328,-363.0816C428.5426,-353.1477 442.1509,-339.9072 453.6908,-328.6793"/>
<polygon fill="#000000" stroke="#000000" points="456.1923,-331.1286 460.9189,-321.6465 451.3108,-326.1115 456.1923,-331.1286"/>
</g>
<!-- TacS -->
<g id="node35" class="node">
<title>TacS</title>
<g id="a_node35"><a xlink:href="http://github.com/FStarLang/FStar/blob/master/ulib/FStar.Tactics.Effect.fst#L100" xlink:title="FStar.Tactics.Effect.fst:100">
<ellipse fill="none" stroke="#000000" stroke-dasharray="1,5" cx="477" cy="-378" rx="28.6953" ry="18"/>
<text text-anchor="middle" x="477" y="-374.3" font-family="Times,serif" font-size="14.00" fill="#000000">TacS</text>
</a>
</g>
</g>
<!-- TacS&#45;&gt;TacH -->
<g id="edge34" class="edge">
<title>TacS&#45;&gt;TacH</title>
<path fill="none" stroke="#000000" stroke-dasharray="1,5" d="M477,-359.8314C477,-352.131 477,-342.9743 477,-334.4166"/>
<polygon fill="#000000" stroke="#000000" points="480.5001,-334.4132 477,-324.4133 473.5001,-334.4133 480.5001,-334.4132"/>
</g>
<!-- TacF -->
<g id="node36" class="node">
<title>TacF</title>
<g id="a_node36"><a xlink:href="http://github.com/FStarLang/FStar/blob/master/ulib/FStar.Tactics.Effect.fst#L103" xlink:title="FStar.Tactics.Effect.fst:103">
<ellipse fill="none" stroke="#000000" stroke-dasharray="1,5" cx="552" cy="-378" rx="28.6953" ry="18"/>
<text text-anchor="middle" x="552" y="-374.3" font-family="Times,serif" font-size="14.00" fill="#000000">TacF</text>
</a>
</g>
</g>
<!-- TacF&#45;&gt;TacH -->
<g id="edge35" class="edge">
<title>TacF&#45;&gt;TacH</title>
<path fill="none" stroke="#000000" stroke-dasharray="1,5" d="M536.0944,-362.7307C525.7242,-352.7753 512.0118,-339.6114 500.4068,-328.4705"/>
<polygon fill="#000000" stroke="#000000" points="502.779,-325.896 493.1412,-321.4956 497.9312,-330.9458 502.779,-325.896"/>
</g>
<!-- Pure -->
<g id="node37" class="node">
<title>Pure</title>
<g id="a_node37"><a xlink:href="http://github.com/FStarLang/FStar/blob/master/ulib/prims.fst#L236" xlink:title="prims.fst:236">
<ellipse fill="#bae3ff" stroke="#000000" stroke-dasharray="1,5" cx="1481" cy="-306" rx="27" ry="18"/>
<text text-anchor="middle" x="1481" y="-302.3" font-family="Times,serif" font-size="14.00" fill="#000000">Pure</text>
</a>
</g>
</g>
<!-- Pure&#45;&gt;PURE -->
<g id="edge36" class="edge">
<title>Pure&#45;&gt;PURE</title>
<path fill="none" stroke="#000000" stroke-dasharray="1,5" d="M1459.1621,-295.3762C1434.8891,-283.5676 1395.3813,-264.3477 1367.0416,-250.5608"/>
<polygon fill="#000000" stroke="#000000" points="1368.4206,-247.3395 1357.897,-246.1121 1365.3583,-253.6341 1368.4206,-247.3395"/>
</g>
<!-- Admit -->
<g id="node38" class="node">
<title>Admit</title>
<g id="a_node38"><a xlink:href="http://github.com/FStarLang/FStar/blob/master/ulib/prims.fst#L238" xlink:title="prims.fst:238">
<ellipse fill="#bae3ff" stroke="#000000" stroke-dasharray="1,5" cx="1364" cy="-306" rx="33.5952" ry="18"/>
<text text-anchor="middle" x="1364" y="-302.3" font-family="Times,serif" font-size="14.00" fill="#000000">Admit</text>
</a>
</g>
</g>
<!-- Admit&#45;&gt;PURE -->
<g id="edge37" class="edge">
<title>Admit&#45;&gt;PURE</title>
<path fill="none" stroke="#000000" stroke-dasharray="1,5" d="M1356.3371,-288.2022C1352.8083,-280.0064 1348.5441,-270.1024 1344.6313,-261.0145"/>
<polygon fill="#000000" stroke="#000000" points="1347.7441,-259.3938 1340.5748,-251.593 1341.3147,-262.162 1347.7441,-259.3938"/>
</g>
<!-- Tot -->
<g id="node39" class="node">
<title>Tot</title>
<g id="a_node39"><a xlink:href="http://github.com/FStarLang/FStar/blob/master/ulib/prims.fst#L242" xlink:title="prims.fst:242">
<ellipse fill="#bae3ff" stroke="#000000" stroke-dasharray="1,5" cx="1553" cy="-306" rx="27" ry="18"/>
<text text-anchor="middle" x="1553" y="-302.3" font-family="Times,serif" font-size="14.00" fill="#000000">Tot</text>
</a>
</g>
</g>
<!-- Tot&#45;&gt;PURE -->
<g id="edge38" class="edge">
<title>Tot&#45;&gt;PURE</title>
<path fill="none" stroke="#000000" stroke-dasharray="1,5" d="M1532.0174,-294.5623C1527.1728,-292.1891 1521.9777,-289.8508 1517,-288 1455.9739,-265.3101 1436.6662,-272.8876 1375,-252 1372.7177,-251.2269 1370.3857,-250.3839 1368.0479,-249.4984"/>
<polygon fill="#000000" stroke="#000000" points="1369.1025,-246.1507 1358.5177,-245.6895 1366.5046,-252.6508 1369.1025,-246.1507"/>
</g>
<!-- GTot -->
<g id="node40" class="node">
<title>GTot</title>
<g id="a_node40"><a xlink:href="http://github.com/FStarLang/FStar/blob/master/ulib/prims.fst#L254" xlink:title="prims.fst:254">
<ellipse fill="#bae3ff" stroke="#000000" stroke-dasharray="1,5" cx="1207" cy="-306" rx="29.4969" ry="18"/>
<text text-anchor="middle" x="1207" y="-302.3" font-family="Times,serif" font-size="14.00" fill="#000000">GTot</text>
</a>
</g>
</g>
<!-- GTot&#45;&gt;GHOST -->
<g id="edge39" class="edge">
<title>GTot&#45;&gt;GHOST</title>
<path fill="none" stroke="#000000" stroke-dasharray="1,5" d="M1220.9656,-290.0393C1242.8698,-265.006 1285.47,-216.32 1311.3638,-186.727"/>
<polygon fill="#000000" stroke="#000000" points="1314.2421,-188.7527 1318.1931,-178.9221 1308.974,-184.1431 1314.2421,-188.7527"/>
</g>
<!-- GTot&#45;&gt;PURE -->
<g id="edge67" class="edge">
<title>GTot&#45;&gt;PURE</title>
<path fill="none" stroke="#f6e58d" d="M1228.6602,-293.6228C1248.5731,-282.2439 1278.3515,-265.2277 1301.005,-252.2828"/>
<polygon fill="#f6e58d" stroke="#f6e58d" points="1302.9724,-255.1898 1309.9183,-247.1895 1299.4994,-249.1121 1302.9724,-255.1898"/>
</g>
<!-- Ghost -->
<g id="node41" class="node">
<title>Ghost</title>
<g id="a_node41"><a xlink:href="http://github.com/FStarLang/FStar/blob/master/ulib/prims.fst#L255" xlink:title="prims.fst:255">
<ellipse fill="#bae3ff" stroke="#000000" stroke-dasharray="1,5" cx="1128" cy="-306" rx="31.6951" ry="18"/>
<text text-anchor="middle" x="1128" y="-302.3" font-family="Times,serif" font-size="14.00" fill="#000000">Ghost</text>
</a>
</g>
</g>
<!-- Ghost&#45;&gt;GHOST -->
<g id="edge40" class="edge">
<title>Ghost&#45;&gt;GHOST</title>
<path fill="none" stroke="#000000" stroke-dasharray="1,5" d="M1149.7947,-292.7999C1166.6489,-282.3202 1190.3455,-266.9866 1210,-252 1229.2835,-237.2963 1231.7165,-230.7037 1251,-216 1266.7501,-203.9906 1285.0958,-191.7582 1300.4361,-181.9795"/>
<polygon fill="#000000" stroke="#000000" points="1302.4896,-184.8223 1309.0787,-176.5256 1298.7539,-178.9024 1302.4896,-184.8223"/>
</g>
<!-- Ghost&#45;&gt;PURE -->
<g id="edge68" class="edge">
<title>Ghost&#45;&gt;PURE</title>
<path fill="none" stroke="#f6e58d" d="M1152.9945,-294.5741C1158.2435,-292.3025 1163.7733,-290.0025 1169,-288 1211.1101,-271.8659 1260.3623,-256.0464 1293.8208,-245.7433"/>
<polygon fill="#f6e58d" stroke="#f6e58d" points="1295.134,-249.0017 1303.672,-242.7286 1293.0855,-242.3081 1295.134,-249.0017"/>
</g>
<!-- Lemma -->
<g id="node42" class="node">
<title>Lemma</title>
<g id="a_node42"><a xlink:href="http://github.com/FStarLang/FStar/blob/master/ulib/prims.fst#L392" xlink:title="prims.fst:392">
<ellipse fill="#bae3ff" stroke="#000000" stroke-dasharray="1,5" cx="1475" cy="-378" rx="38.1938" ry="18"/>
<text text-anchor="middle" x="1475" y="-374.3" font-family="Times,serif" font-size="14.00" fill="#000000">Lemma</text>
</a>
</g>
</g>
<!-- Lemma&#45;&gt;Pure -->
<g id="edge41" class="edge">
<title>Lemma&#45;&gt;Pure</title>
<path fill="none" stroke="#000000" stroke-dasharray="1,5" d="M1476.5141,-359.8314C1477.1558,-352.131 1477.9188,-342.9743 1478.6319,-334.4166"/>
<polygon fill="#000000" stroke="#000000" points="1482.1229,-334.6694 1479.4656,-324.4133 1475.1471,-334.088 1482.1229,-334.6694"/>
</g>
<!-- M -->
<g id="node43" class="node">
<title>M</title>
<g id="a_node43"><a xlink:href="http://github.com/FStarLang/FStar/blob/master/ulib/prims.fst#L398" xlink:title="prims.fst:398">
<ellipse fill="#bae3ff" stroke="#000000" stroke-dasharray="1,5" cx="1558" cy="-378" rx="27" ry="18"/>
<text text-anchor="middle" x="1558" y="-374.3" font-family="Times,serif" font-size="14.00" fill="#000000">M</text>
</a>
</g>
</g>
<!-- M&#45;&gt;Tot -->
<g id="edge42" class="edge">
<title>M&#45;&gt;Tot</title>
<path fill="none" stroke="#000000" stroke-dasharray="1,5" d="M1556.7383,-359.8314C1556.2035,-352.131 1555.5677,-342.9743 1554.9734,-334.4166"/>
<polygon fill="#000000" stroke="#000000" points="1558.4632,-334.1467 1554.2787,-324.4133 1551.48,-334.6317 1558.4632,-334.1467"/>
</g>
</g>
</svg>
